<svg width="140" height="136" viewBox="0 0 140 136" fill="none" xmlns="http://www.w3.org/2000/svg">
<path d="M36.4058 101.481C39.8259 97.9123 57.855 84.807 66.2311 80.345L81.9657 93.7311C80.1652 98.0366 76.0946 111.11 71.3977 117.216C70.2793 118.669 63.1781 123.087 61.0645 129.193C58.9509 135.299 49.7919 136.943 47.2087 135.533C44.6254 134.124 38.7543 131.541 36.4058 130.367C34.0574 129.193 27.9514 125.2 28.656 118.39C29.3605 111.579 31.0044 107.117 36.4058 101.481Z" fill="#C1CD9B"/>
<path d="M51.6711 11.066L65.527 61.7924L75.6253 71.656L79.3828 47.2321L82.4358 36.6641C84.3145 27.9748 85.4385 13.6493 85.0191 7.7782C84.7842 4.49043 79.148 0.263116 74.4511 0.263116C70.6936 0.263116 66.936 1.51562 65.527 2.14187C64.9007 1.12421 62.38 -0.676263 57.3074 0.263116C52.2347 1.2025 51.4363 7.85643 51.6711 11.066Z" fill="#C1CD9B"/>
<path d="M125.647 36.6641C111.791 36.6641 94.4912 58.2698 79.3828 69.5424L80.7919 75.8832C81.653 78.1533 84.6433 82.8816 89.716 83.6331C96.0568 84.5724 105.003 79.0071 106.625 78.4665C110.147 77.2923 111.791 75.8832 115.314 75.8832C118.063 75.8832 127.761 77.2923 132.927 72.5954C138.094 67.8985 140.208 66.2545 139.738 55.4517C139.268 44.6488 126.976 36.6641 125.647 36.6641Z" fill="#C1CD9B"/>
<path d="M90.8903 12.4748C85.0662 19.802 78.7567 50.9111 76.33 65.5497L83.6101 70.2466C90.8903 65.5497 106.39 51.9287 113.67 43.2395C120.925 34.5801 123.299 29.1488 125.647 24.217C127.996 19.2853 123.299 15.2929 122.125 15.0581C120.95 14.8232 116.723 11.5354 116.254 9.18696C115.784 6.83853 112.026 4.9598 110.617 4.25525L110.617 4.25524C109.208 3.5507 98.1705 3.31586 90.8903 12.4748Z" fill="#C1CD9B"/>
<path d="M19.967 65.0799C28.0457 63.2011 55.5068 72.5949 65.9965 78.466L59.186 88.0946C54.6457 90.13 43.864 94.7622 41.8075 95.8445C37.3455 98.193 26.7775 109.466 23.2548 111.109C19.7321 112.753 16.914 111.109 12.2171 109.466C7.52025 107.822 -0.229629 88.3295 0.00521605 80.3448C0.240061 72.3601 9.8687 67.4283 19.967 65.0799Z" fill="#C1CD9B"/>
<path d="M67.1709 97.7237C67.9224 90.9602 74.0597 84.729 77.0344 82.4588C75.5471 81.5194 74.1223 79.4998 80.3222 78.9361C88.072 78.2316 101.458 83.8679 106.86 87.6254C112.261 91.3829 118.132 101.951 118.837 107.118C119.541 112.284 117.663 114.867 114.844 117.686C112.026 120.504 100.754 121.443 97.231 120.973C93.7084 120.504 74.4511 112.049 72.5724 111.11C70.6936 110.17 66.2316 106.178 67.1709 97.7237Z" fill="#C1CD9B"/>
<path d="M17.3838 46.5275C23.5837 47.0912 53.7848 64.8454 67.1709 73.7695L65.2921 78.9361C46.348 76.118 7.70819 70.3408 4.70218 69.7772C0.944665 69.0726 0.474976 65.0803 0.474976 63.2015C0.474976 61.6985 3.29311 57.7218 4.70218 55.9213C4.85874 54.1209 5.50065 50.0972 6.81578 48.4063C8.4597 46.2927 9.63392 45.823 17.3838 46.5275Z" fill="#C1CD9B"/>
<path d="M32.6486 51.929C38.2849 53.432 57.229 66.8025 65.9966 73.2998L74.9206 71.8908V58.9743C70.2237 32.2959 58.8729 14.98 53.3149 8.95235C52.8452 8.09126 49.9801 4.81911 46.0347 4.25548C42.0893 3.69185 38.7545 8.24784 37.5803 10.5963C28.4213 11.7705 20.2921 17.4067 18.5579 21.1643C16.2818 26.096 17.6185 38.308 18.5579 40.1867C19.4973 42.0655 25.6032 50.0502 32.6486 51.929Z" fill="#C1CD9B"/>
<path d="M86.478 68.0872C89.3198 72.9902 86.1928 80.1125 79.4936 83.9954C72.7945 87.8782 65.0601 87.0512 62.2183 82.1482C59.3765 77.2452 62.5035 70.1229 69.2026 66.24C77.7391 61.292 83.6362 63.1842 86.478 68.0872Z" fill="#C1CD9B"/>
</svg>
