<svg width="120" height="129" viewBox="0 0 120 129" fill="none" xmlns="http://www.w3.org/2000/svg">
<ellipse cx="66.5126" cy="38.2671" rx="17.7485" ry="22.0425" transform="rotate(16.2249 66.5126 38.2671)" fill="#C1CD9B"/>
<path d="M64.1207 53.9868C57.6099 71.6383 46.56 83.8187 39.4401 81.1925C32.3202 78.5663 24.9592 65.9165 31.4699 48.2651C37.9807 30.6136 58.1463 14.0837 63.0178 17.2709C67.4798 23.1087 67.2469 35.5352 64.1207 53.9868Z" fill="#C1CD9B"/>
<path d="M94.7317 66.9392C89.5276 87.4037 68.8301 100.37 59.6931 97.2841C50.556 94.1983 36.8597 83.7641 50.999 56.2346C58.9868 40.6822 76.1777 23.5021 84.9796 24.2872C94.1525 29.5832 97.8104 54.8332 94.7317 66.9392Z" fill="#C1CD9B"/>
<path d="M52.9331 92.3892C56.1519 87.1958 65.7097 77.7243 77.2958 75.3832C90.0189 72.8123 96.7893 75.399 98.2767 76.2578C95.7855 82.8629 86.6502 97.3115 75.3042 100.016C63.9583 102.721 56.4617 102.69 54.1316 102.337C52.7318 105.715 49.1996 112.711 46.2696 113.664C43.3395 114.617 42.6581 114.003 42.6837 113.577C41.9621 113.491 40.5782 112.758 40.8155 110.515C41.0527 108.272 44.922 102.639 46.827 100.103C41.4173 97.6403 29.8161 91.2069 26.69 85.1709C22.7823 77.626 17.635 69.3654 21.6735 55.5C26.8516 56.8369 33.7043 58.4794 41.5066 66.9507C49.3089 75.4219 52.3752 87.4394 52.9331 92.3892Z" fill="#C1CD9B"/>
</svg>
