<svg width="164" height="159" viewBox="0 0 164 159" fill="none" xmlns="http://www.w3.org/2000/svg">
<path d="M91.5748 127.505C98.4432 130.776 111.014 131.655 116.441 131.686L118.238 133.796C114.301 133.641 105.696 133.224 102.763 132.797C99.8297 132.37 94.0516 130.627 91.5291 129.809C88.703 131.059 80.323 133.185 78.5924 133.24C69.6575 133.523 65.9539 131.53 63.163 129.938C55.6322 125.64 47.889 118.803 43.9969 116.421C42.3107 115.389 35.6785 112.108 33.3249 111.6C31.7559 111.262 30.1176 110 29.6907 109.454C38.7869 109.865 53.5802 109.928 62.4877 111.026C67.9578 111.701 75.7529 117.512 78.3507 118.946C80.9485 120.381 82.9892 123.417 91.5748 127.505Z" fill="#C1CD9B"/>
<path d="M83.0996 91.384C83.0338 94.7014 89.4394 107.181 92.6505 113.007L82.8346 104.746C84.9421 104.419 84.8024 102.634 84.4691 101.782L81.4468 95.2691C81.4468 95.2691 80.9583 93.4158 80.7095 92.7194C80.4607 92.0231 80.5384 88.1068 80.5384 88.1068L78.7419 85.997C75.4251 81.0915 68.5618 69.6166 67.6433 62.9611C66.4952 54.6416 74.0789 43.0385 77.0306 39.8705C79.392 37.3362 84.7124 27.7316 87.0775 23.2461C87.4366 22.7923 88.2832 23.3622 88.7963 29.2722C89.4376 36.6597 103.187 45.2291 101.858 59.2609C100.795 70.4864 89.0313 79.2104 83.2824 82.1692L83.0996 91.384Z" fill="#C1CD9B"/>
<path d="M120.957 115.873C120.767 125.457 127.356 137.51 130.688 141.648L120.605 133.612C122.282 133.83 122.372 132.802 122.208 132.261C121.183 130.95 118.829 121.67 117.779 117.193C114.611 115.747 111.34 110.843 110.105 106.901C109.254 104.185 106.034 97.7481 109.42 88.4499C111.92 81.5856 130.591 71.5084 140.293 67.8598L140.985 72.7132C145.477 84.5559 147.645 91.4457 143.034 101.792C140.286 107.96 129.947 112.825 120.957 115.873Z" fill="#C1CD9B"/>
<path d="M51.9122 74.8639C43.2218 65.0676 38.7835 48.254 38.4123 40.4877C34.9826 43.9227 30.2718 44.8587 28.3451 44.8973C32.1254 44.9722 35.3988 51.1828 36.563 54.2788C41.9118 70.6094 50.4762 81.0579 56.699 85.0992C84.503 113.306 126.687 140.339 153.461 158.692L159.461 158.811C159.763 158.857 160.039 158.864 160.287 158.828L159.461 158.811C154.619 158.089 143.208 147.576 139.527 146.202C136.399 145.033 111.987 126.757 100.172 117.765C88.2142 107.157 68.3526 93.3966 51.9122 74.8639Z" fill="#C1CD9B"/>
<path d="M5.88582 25.3144C7.1822 39.3984 14.4571 44.6998 27.0581 44.9497C38.9236 45.1851 45.5332 39.0068 44.5496 22.394C43.0989 13.1758 32.3816 1.65031 21.2441 2.83268C13.4161 4.50072 6.09584 14.7262 5.88582 25.3144Z" fill="#C1CD9B"/>
</svg>
