<svg width="158" height="161" viewBox="0 0 158 161" fill="none" xmlns="http://www.w3.org/2000/svg">
<path d="M40.0296 52.5628C44.1111 55.351 59.9968 70.9855 65.7727 78.5161L55.1496 96.2337C50.607 95.164 37.0433 93.2935 30.2494 89.6621C28.6318 88.7974 23.1093 82.5172 16.7393 81.434C10.3693 80.3509 7.24489 71.5858 8.21102 68.8063C9.17714 66.0269 10.7621 59.8115 11.5351 57.3022C12.3081 54.7929 15.2446 48.1147 22.0784 47.6922C28.9122 47.2698 33.5835 48.1593 40.0296 52.5628Z" fill="#C1CD9B"/>
<path d="M131.724 52.7864L83.9582 74.7773L75.8852 86.3571L100.595 86.0564L111.52 87.3341C120.4 87.7618 134.716 86.52 140.439 85.143C143.643 84.3719 146.889 78.1185 146.118 73.4852C145.501 69.7786 143.649 66.2775 142.8 64.9903C143.702 64.2055 145.064 61.4236 143.305 56.5739C141.546 51.7241 134.851 52.0282 131.724 52.7864Z" fill="#C1CD9B"/>
<path d="M118.61 129.96C116.337 116.292 92.1853 102.771 78.5867 89.717L72.563 92.1473C70.4649 93.3692 66.2914 97.0948 66.3823 102.222C66.496 108.631 73.4537 116.543 74.2532 118.054C75.9895 121.336 77.6492 122.727 78.2271 126.202C78.6781 128.913 78.8793 138.711 84.3603 143.037C89.8412 147.363 91.8096 149.178 102.389 146.942C112.968 144.706 118.828 131.27 118.61 129.96Z" fill="#C1CD9B"/>
<path d="M136.769 91.7054C128.586 87.1623 96.8628 86.0425 82.0244 86.0505L78.5856 94.0026C84.4133 100.414 100.393 113.468 110.159 119.224C119.891 124.96 125.638 126.41 130.889 127.918C136.139 129.425 139.306 124.137 139.345 122.94C139.384 121.743 141.934 117.034 144.174 116.185C146.413 115.337 147.65 111.322 148.114 109.816L148.114 109.816C148.578 108.311 146.998 97.3842 136.769 91.7054Z" fill="#C1CD9B"/>
<path d="M73.2401 30.3743C76.4189 38.0352 71.6581 66.6655 67.5876 77.9763L56.9721 72.8379C54.2194 68.6931 47.881 58.8175 46.4759 56.9665C43.4271 52.9502 30.5734 44.3749 28.3738 41.1697C26.1742 37.9645 27.3335 34.9149 28.1845 30.0119C29.0355 25.109 46.9919 14.266 54.9069 13.1876C62.8219 12.1092 69.2667 20.7982 73.2401 30.3743Z" fill="#C1CD9B"/>
<path d="M48.7837 82.2944C55.5789 81.926 62.7326 86.9577 65.4601 89.5196C66.1427 87.8983 67.9012 86.1615 69.4744 92.1849C71.441 99.7141 68.0774 113.844 65.257 119.788C62.4366 125.733 52.9751 133.259 47.9942 134.801C43.0132 136.344 40.1566 134.915 36.9143 132.597C33.672 130.279 30.8958 119.314 30.7812 115.762C30.6665 112.21 35.8468 91.8263 36.4652 89.8189C37.0836 87.8115 40.2897 82.7548 48.7837 82.2944Z" fill="#C1CD9B"/>
<path d="M91.1174 24.782C91.5786 30.9904 79.0201 63.6952 72.4133 78.3641L67.0084 77.3585C66.6801 58.2087 66.0393 19.1447 66.1021 16.0869C66.1806 12.2647 70.0418 11.1463 71.8951 10.8381C73.3777 10.5915 77.7629 12.719 79.7702 13.8135C81.5719 13.6726 85.6464 13.6456 87.5301 14.6655C89.8848 15.9403 90.5408 17.0216 91.1174 24.782Z" fill="#C1CD9B"/>
<path d="M88.2937 40.7262C87.7358 46.5327 77.6547 67.4139 72.6839 77.1286L75.5381 85.7006L88.2795 83.5813C113.826 74.5709 129.045 60.5328 134.079 54.0612C134.851 53.4566 137.609 50.0934 137.517 46.109C137.426 42.1246 132.385 39.5825 129.875 38.8095C127.214 29.9674 120.321 22.873 116.33 21.7788C111.091 20.3428 99.264 23.665 97.5649 24.8999C95.8657 26.1348 88.991 33.4681 88.2937 40.7262Z" fill="#C1CD9B"/>
<path d="M81.1862 96.4774C76.8159 100.085 69.2771 98.169 64.3477 92.1978C59.4183 86.2265 58.9651 78.4611 63.3354 74.8534C67.7057 71.2457 75.2446 73.1617 80.174 79.133C86.4555 86.742 85.5565 92.8696 81.1862 96.4774Z" fill="#C1CD9B"/>
</svg>
