<svg width="995" height="1069" viewBox="0 0 995 1069" fill="none" xmlns="http://www.w3.org/2000/svg">
<g opacity="0.3">
<path d="M517.411 935.001L521.504 906.426L547.911 903.916L521.735 899.62L519.589 870.832L515.496 899.408L489.089 901.918L515.265 906.214L517.411 935.001Z" fill="white"/>
<path d="M42.5844 643.896L45.8817 610.316L70.5844 606.6L45.9698 602.339L43.4156 568.695L40.1183 602.275L15.4156 605.99L40.0302 610.251L42.5844 643.896Z" fill="white"/>
<path d="M464.004 437.025L467.428 398.964L496.041 394.47L467.435 389.931L464.071 351.864L460.646 389.926L432.033 394.42L460.639 398.958L464.004 437.025Z" fill="white"/>
<path d="M110.721 998.176L114.969 942.814L150.481 936.279L114.977 929.675L110.799 874.305L106.551 929.667L71.0388 936.201L106.543 942.805L110.721 998.176Z" fill="white"/>
<path d="M336.434 789.863L339.936 744.951L370.46 739.502L339.907 734.297L336.162 689.415L332.66 734.326L302.136 739.776L332.689 744.98L336.434 789.863Z" fill="white"/>
<path d="M792.268 725.139L795.261 697.211L826.219 693.139L795.097 690.606L790.724 662.861L787.731 690.788L756.773 694.861L787.895 697.394L792.268 725.139Z" fill="white"/>
<path d="M700.112 209.652L704.204 172.455L735.636 168.348L704.292 163.619L700.937 126.348L696.844 163.545L665.412 167.652L696.756 172.381L700.112 209.652Z" fill="white"/>
<path d="M191.995 173.35L194.841 134.208L222.505 129.255L194.736 124.929L191.005 85.8611L188.159 125.003L160.495 129.956L188.264 134.283L191.995 173.35Z" fill="white"/>
<path d="M265.732 291.184L267.25 272.876L281.769 270.541L267.201 268.536L265.269 250.267L263.75 268.575L249.232 270.909L263.799 272.915L265.732 291.184Z" fill="white"/>
<path d="M249.337 540.811L250.804 514.182L265.664 510.857L250.732 507.868L248.664 481.279L247.197 507.908L232.337 511.234L247.269 514.222L249.337 540.811Z" fill="white"/>
<path d="M689.399 1068.45L693.548 1022.72L724.453 1017.78L693.664 1011.86L690.494 966.014L686.344 1011.74L655.44 1016.68L686.228 1022.61L689.399 1068.45Z" fill="white"/>
<path d="M95.4984 324.705L98.6475 294.345L122.375 291.002L98.7278 287.133L96.2558 256.709L93.1067 287.07L69.3787 290.412L93.0263 294.282L95.4984 324.705Z" fill="white"/>
<mask id="path-13-inside-1_128_1104" fill="white">
<path d="M-33.0102 503.752C138.784 518.076 309.233 463.569 440.839 352.221C572.445 240.873 654.428 81.8048 668.752 -89.9897L663.129 -90.4586C648.929 79.8445 567.658 237.532 437.194 347.913C306.731 458.295 137.762 512.329 -32.5413 498.129L-33.0102 503.752Z"/>
</mask>
<path d="M-33.0102 503.752C138.784 518.076 309.233 463.569 440.839 352.221C572.445 240.873 654.428 81.8048 668.752 -89.9897L663.129 -90.4586C648.929 79.8445 567.658 237.532 437.194 347.913C306.731 458.295 137.762 512.329 -32.5413 498.129L-33.0102 503.752Z" stroke="white" stroke-width="20" mask="url(#path-13-inside-1_128_1104)"/>
<mask id="path-14-inside-2_128_1104" fill="white">
<path d="M-36.2117 639.987C64.339 650.14 166.008 640.98 262.771 613.051C359.533 585.122 449.421 538.992 527.105 477.394C604.79 415.796 668.692 339.984 715.023 254.45C761.355 168.917 789.173 75.402 796.831 -20.5516L791.836 -20.9125C784.23 74.4049 756.596 167.299 710.571 252.266C664.547 337.233 601.069 412.542 523.899 473.732C446.729 534.921 357.438 580.746 261.317 608.49C165.196 636.234 64.2008 645.332 -35.6832 635.247L-36.2117 639.987Z"/>
</mask>
<path d="M-36.2117 639.987C64.339 650.14 166.008 640.98 262.771 613.051C359.533 585.122 449.421 538.992 527.105 477.394C604.79 415.796 668.692 339.984 715.023 254.45C761.355 168.917 789.173 75.402 796.831 -20.5516L791.836 -20.9125C784.23 74.4049 756.596 167.299 710.571 252.266C664.547 337.233 601.069 412.542 523.899 473.732C446.729 534.921 357.438 580.746 261.317 608.49C165.196 636.234 64.2008 645.332 -35.6832 635.247L-36.2117 639.987Z" stroke="white" stroke-width="20" stroke-dasharray="20 20" mask="url(#path-14-inside-2_128_1104)"/>
<mask id="path-15-inside-3_128_1104" fill="white">
<path d="M-41.4567 715.398C183.287 733.023 405.828 660.648 577.209 514.193C748.59 367.738 854.773 159.201 872.398 -65.5432L866.914 -65.9732C849.403 157.316 743.907 364.504 573.635 510.011C403.363 655.518 182.263 727.426 -41.0266 709.914L-41.4567 715.398Z"/>
</mask>
<path d="M-41.4567 715.398C183.287 733.023 405.828 660.648 577.209 514.193C748.59 367.738 854.773 159.201 872.398 -65.5432L866.914 -65.9732C849.403 157.316 743.907 364.504 573.635 510.011C403.363 655.518 182.263 727.426 -41.0266 709.914L-41.4567 715.398Z" stroke="white" stroke-width="20" mask="url(#path-15-inside-3_128_1104)"/>
<mask id="path-16-inside-4_128_1104" fill="white">
<path d="M-49.5897 857.279C79.4845 870.195 209.836 856.54 333.432 817.156C457.027 777.771 571.248 713.492 669.053 628.28C766.858 543.068 846.176 438.729 902.118 321.693C958.06 204.657 989.441 77.4037 994.326 -52.223L988.183 -52.4545C983.329 76.3334 952.151 202.763 896.572 319.042C840.992 435.32 762.187 538.985 665.015 623.645C567.842 708.306 454.361 772.169 331.565 811.298C208.77 850.428 79.2614 863.994 -48.9775 851.162L-49.5897 857.279Z"/>
</mask>
<path d="M-49.5897 857.279C79.4845 870.195 209.836 856.54 333.432 817.156C457.027 777.771 571.248 713.492 669.053 628.28C766.858 543.068 846.176 438.729 902.118 321.693C958.06 204.657 989.441 77.4037 994.326 -52.223L988.183 -52.4545C983.329 76.3334 952.151 202.763 896.572 319.042C840.992 435.32 762.187 538.985 665.015 623.645C567.842 708.306 454.361 772.169 331.565 811.298C208.77 850.428 79.2614 863.994 -48.9775 851.162L-49.5897 857.279Z" stroke="white" stroke-width="20" mask="url(#path-16-inside-4_128_1104)"/>
<circle cx="75" cy="75" r="74.5" transform="matrix(1 0 0 -1 659 635)" fill="white" stroke="white"/>
<circle cx="30" cy="30" r="30" transform="matrix(1 0 0 -1 85 740)" fill="white"/>
<circle cx="50" cy="50" r="50" transform="matrix(1 0 0 -1 178 744)" fill="white"/>
<circle cx="100" cy="100" r="97.5" transform="matrix(1 0 0 -1 45 807)" stroke="white" stroke-width="5"/>
<circle cx="40" cy="40" r="37.5" transform="matrix(1 0 0 -1 123 521)" stroke="white" stroke-width="5"/>
<circle cx="80" cy="80" r="76" transform="matrix(1 0 0 -1 395 594)" stroke="white" stroke-width="8" stroke-linejoin="round" stroke-dasharray="10 10"/>
<circle cx="45" cy="45" r="45" transform="matrix(1 0 0 -1 305 457)" fill="white"/>
<path d="M794.858 220.08C785.055 210.497 764.634 215.489 774.217 205.687C783.8 195.884 799.515 195.707 809.317 205.29C819.12 214.873 819.298 230.588 809.715 240.39C800.131 250.193 804.66 229.664 794.858 220.08Z" fill="white"/>
<circle cx="20" cy="20" r="20" transform="matrix(1 0 0 -1 262 627)" fill="white"/>
<circle cx="20" cy="20" r="20" transform="matrix(1 0 0 -1 400 801)" fill="white"/>
<circle cx="20" cy="20" r="20" transform="matrix(1 0 0 -1 547 227)" fill="white"/>
<circle cx="25" cy="25" r="25" transform="matrix(1 0 0 -1 582 155)" fill="white"/>
<path d="M755.585 425.204C754.572 425.083 753.241 425.434 751.519 426.824C749.793 428.217 747.897 430.484 745.892 433.683C741.89 440.07 737.761 449.669 733.777 461.866C725.821 486.221 718.602 520.427 714.042 558.695C709.483 596.962 708.463 631.907 710.474 657.449C711.481 670.241 713.239 680.542 715.628 687.69C716.825 691.271 718.135 693.92 719.486 695.68C720.834 697.435 722.045 698.089 723.058 698.21C724.07 698.33 725.401 697.979 727.123 696.589C728.85 695.196 730.746 692.929 732.751 689.73C736.753 683.344 740.882 673.744 744.866 661.547C752.822 637.193 760.041 602.986 764.6 564.719C769.16 526.451 770.18 491.506 768.169 465.964C767.162 453.172 765.404 442.871 763.014 435.723C761.818 432.143 760.507 429.494 759.156 427.734C757.809 425.978 756.598 425.324 755.585 425.204Z" stroke="white" stroke-width="5"/>
<rect width="3" height="12" rx="1" transform="matrix(0.901713 0.432336 0.432336 -0.901713 801 246.703)" fill="white"/>
</g>
</svg>
