<svg width="618" height="154" viewBox="0 0 618 154" fill="none" xmlns="http://www.w3.org/2000/svg">
<path d="M139.871 0C152.404 0 161.204 2 166.271 6.00001C171.338 9.86667 173.871 15.5333 173.871 23C173.871 30.7333 170.871 36.5333 164.871 40.4C159.004 44.1333 149.871 46 137.471 46C133.338 46 128.671 45.9333 123.471 45.8C118.271 45.5333 112.804 45.1333 107.071 44.6L108.071 43C109.404 45.9333 110.071 49.0667 110.071 52.4C110.071 55.7333 109.538 58.9333 108.471 62L105.271 60.6C108.204 59.8 111.738 59.1333 115.871 58.6C120.138 57.9333 124.538 57.4 129.071 57C133.604 56.6 137.738 56.4 141.471 56.4C151.604 56.4 158.671 57.9333 162.671 61C166.804 64.0667 168.871 67.8667 168.871 72.4C168.871 77.3333 166.538 81.5333 161.871 85C157.338 88.3333 149.404 90 138.071 90C133.138 90 127.804 89.7333 122.071 89.2C116.338 88.6667 110.538 87.9333 104.671 87L107.871 84.6C109.071 86.6 109.804 89 110.071 91.8C110.471 94.6 110.404 97.4 109.871 100.2C109.338 102.867 108.338 105.267 106.871 107.4V105.4C110.338 104.333 114.271 103.467 118.671 102.8C123.071 102 127.604 101.4 132.271 101C136.938 100.6 141.271 100.4 145.271 100.4C154.738 100.4 161.804 102 166.471 105.2C171.138 108.4 173.471 113.6 173.471 120.8C173.471 125.467 172.538 129.333 170.671 132.4C168.938 135.467 165.871 138.133 161.471 140.4C158.004 142.133 153.604 143.6 148.271 144.8C143.071 146 137.471 146.867 131.471 147.4C125.604 148.067 119.804 148.4 114.071 148.4C103.538 148.4 94.8042 147.133 87.8709 144.6C81.0709 141.933 76.1376 138.133 73.0709 133.2C70.2709 128.4 68.2709 122.133 67.0709 114.4C65.8709 106.667 65.2709 96.0667 65.2709 82.6C65.2709 69.8 65.7376 59.2667 66.6709 51C67.6042 42.6 68.9376 35.8 70.6709 30.6C72.4043 25.4 74.4043 21.2667 76.6709 18.2C80.1376 13.5333 85.0709 9.86667 91.4709 7.2C97.8709 4.53334 105.271 2.66667 113.671 1.6C122.071 0.533334 130.804 0 139.871 0Z" fill="#D1DAAF"/>
<path d="M242.496 7.4C260.096 7.4 273.029 11.2667 281.296 19C289.696 26.7333 293.896 36.9333 293.896 49.6C293.896 58.6667 291.963 66.5333 288.096 73.2C284.363 79.8667 279.163 85.0667 272.496 88.8C265.963 92.4 258.563 94.2 250.296 94.2C246.829 94.2 242.896 93.9333 238.496 93.4C234.229 92.7333 230.363 91.7333 226.896 90.4L230.696 86.8C231.763 89.4667 232.629 92.7333 233.296 96.6C234.096 100.333 234.696 104.267 235.096 108.4C235.629 112.533 235.896 116.333 235.896 119.8C235.896 129.133 233.629 136.267 229.096 141.2C224.696 146.133 218.029 148.6 209.096 148.6C201.763 148.6 196.029 147 191.896 143.8C187.763 140.467 184.896 135.067 183.296 127.6C181.696 120.133 180.896 110.2 180.896 97.8C180.896 82.3333 181.963 69.3333 184.096 58.8C186.229 48.1333 188.963 39.7333 192.296 33.6C196.696 25.4667 203.029 19.0667 211.296 14.4C219.696 9.73334 230.096 7.4 242.496 7.4ZM242.696 71.4C249.763 71.4 255.763 69.5333 260.696 65.8C265.629 61.9333 268.096 56.6 268.096 49.8C268.096 44.8667 266.496 40.6667 263.296 37.2C260.229 33.6 254.963 31.8 247.496 31.8C242.163 31.8 237.496 32.8 233.496 34.8C229.629 36.6667 226.629 39.2667 224.496 42.6C222.496 45.8 221.496 49.4 221.496 53.4C221.496 58.4667 223.229 62.7333 226.696 66.2C230.296 69.6667 235.629 71.4 242.696 71.4Z" fill="#D1DAAF"/>
<path d="M330.018 138.8C324.418 138.8 319.551 136.867 315.418 133C311.418 129 308.284 122.133 306.018 112.4C304.951 107.6 304.018 102.133 303.218 96C302.418 89.7333 301.818 83.4667 301.418 77.2C301.018 70.9333 300.818 65.4 300.818 60.6C300.818 44.8667 301.818 32.8 303.818 24.4C305.818 16 308.818 10.2 312.818 7.00001C316.951 3.80001 322.084 2.20001 328.218 2.20001C334.084 2.20001 338.818 4.13334 342.418 8C346.018 11.8667 349.084 18.5333 351.618 28C352.551 31.7333 353.418 36.1333 354.218 41.2C355.018 46.1333 355.684 51.2667 356.218 56.6C356.751 61.8 357.151 66.8667 357.418 71.8C357.684 76.7333 357.818 81 357.818 84.6C357.818 95.9333 357.018 105.667 355.418 113.8C353.951 121.8 351.218 128 347.218 132.4C343.218 136.667 337.484 138.8 330.018 138.8Z" fill="#D1DAAF"/>
<path d="M442.01 149.4C424.943 149.4 410.743 146.6 399.41 141C388.077 135.267 379.61 127.267 374.01 117C368.543 106.733 365.81 94.7333 365.81 81C365.81 65.8 368.943 52.5333 375.21 41.2C381.477 29.7333 390.477 20.8667 402.21 14.6C414.077 8.33334 428.343 5.2 445.01 5.2C460.61 5.2 472.543 8.33334 480.81 14.6C489.21 20.7333 493.41 29.2 493.41 40C493.41 47.8667 491.21 54.1333 486.81 58.8C482.543 63.3333 476.277 65.6 468.01 65.6C463.477 65.6 459.543 65 456.21 63.8C452.877 62.6 449.543 61.4667 446.21 60.4C442.877 59.2 439.01 58.6 434.61 58.6C430.877 58.6 427.343 59.2 424.01 60.4C420.81 61.4667 418.21 63.4 416.21 66.2C414.343 68.8667 413.41 72.6 413.41 77.4C413.41 83.6667 415.277 88.1333 419.01 90.8C422.877 93.4667 427.943 94.8 434.21 94.8C437.41 94.8 441.01 94.6 445.01 94.2C449.01 93.6667 452.943 93.2 456.81 92.8C460.81 92.4 464.21 92.2 467.01 92.2C474.077 92.2 479.677 94.2 483.81 98.2C488.077 102.067 490.21 107.933 490.21 115.8C490.21 126.067 486.277 134.267 478.41 140.4C470.677 146.4 458.543 149.4 442.01 149.4Z" fill="#D1DAAF"/>
<path d="M39.0494 55.5127C35.0948 56.7966 29.7303 61.1523 27.5423 63.1697L26.0478 63.0128C27.6834 61.6016 31.2878 58.5469 32.6207 57.6178C33.9537 56.6887 36.9107 55.2126 38.2226 54.5907C38.8975 53.0429 41.4786 49.0739 42.1526 48.4052C45.6321 44.9524 47.8487 44.3503 49.5523 43.9322C54.1494 42.8041 59.7631 42.5941 62.1979 42.0742C63.2528 41.849 67.1166 40.6577 68.2468 39.977C69.0002 39.5231 70.1201 39.4061 70.4917 39.461C66.6927 42.7012 60.7363 48.2087 56.7607 51.1083C54.3193 52.8889 49.0611 53.5214 47.4931 53.9294C45.925 54.3375 43.9925 53.9079 39.0494 55.5127Z" fill="#506D2A"/>
<path d="M55.6993 66.5322C54.5088 65.2045 47.3614 62.6978 43.9366 61.6103L50.904 61.1845C50.1787 62.1011 50.8895 62.75 51.3356 62.9599L54.937 64.388C54.937 64.388 55.8128 64.9334 56.1681 65.1139C56.5233 65.2943 57.9288 66.8618 57.9288 66.8618L59.4234 67.0187C62.5532 67.7053 69.5154 69.6461 72.3254 71.917C75.8378 74.7557 77.0527 82.1496 77.031 84.4978C77.0136 86.3764 78.4031 92.1389 79.1001 94.7853C79.1225 95.0979 78.5739 95.1906 76.2 93.061C73.2327 90.3989 64.5746 92.1744 59.96 86.1656C56.2684 81.3585 57.7861 73.5325 59.0065 70.2203L55.6993 66.5322Z" fill="#506D2A"/>
<path d="M31.5317 71.0701C28.0923 67.2345 21.0279 64.9638 18.1736 64.5846L25.1655 63.9705C24.4132 64.512 24.754 64.9494 25.0184 65.1004C25.9102 65.2323 30.2591 67.9973 32.3221 69.3633C34.1233 68.7462 37.2345 69.4495 39.176 70.5363C40.5135 71.2849 44.1662 72.6092 46.2191 77.528C47.7346 81.1592 43.9428 92.1 41.3901 97.1615L39.3322 95.5136C33.186 92.5416 29.7889 90.646 27.8427 84.8575C26.6825 81.4066 29.0443 75.6293 31.5317 71.0701Z" fill="#506D2A"/>
<path d="M39.1742 62.5537C47.8617 62.2489 60.8758 60.2267 74.2683 61.3585L68.5937 59.128C47.0945 58.4457 20.2586 63.6023 2.78725 66.4053L0.337211 68.6023C0.199564 68.6975 0.0861333 68.7981 0 68.9046L0.337211 68.6023C2.54423 67.0755 10.9775 66.9376 12.9581 66.1011C14.6414 65.3901 31.1368 63.4399 39.1742 62.5537Z" fill="#506D2A"/>
<path d="M542.439 45.3074C544.324 49.0153 549.729 66.9766 550.948 74.8697L535.945 83.6524C533.024 81.0265 523.769 74.1628 520.223 68.7361C519.378 67.444 517.841 60.5762 513.577 57.2017C509.314 53.8272 510.551 46.0948 512.388 44.4338C514.224 42.7729 517.907 38.8262 519.492 37.2866C521.076 35.7471 525.943 32.005 531.158 34.4558C536.373 36.9065 539.461 39.4514 542.439 45.3074Z" fill="#F7A2BF"/>
<path d="M610.026 82.54L565.881 79.4619L555.242 84.7452L573.601 94.512L581.148 99.8718C587.53 103.777 598.598 108.648 603.378 109.945C606.055 110.671 610.979 107.367 612.283 103.636C613.326 100.651 613.374 97.3184 613.268 96.0251C614.25 95.8102 616.381 94.3077 617.043 90.0172C617.705 85.7266 612.641 83.2447 610.026 82.54Z" fill="#EEA7BF"/>
<path d="M569.15 134.199C572.997 123.192 560.637 103.449 555.878 88.3171L550.449 87.6758C548.406 87.7295 543.82 88.7922 541.815 92.6133C539.308 97.3896 541.245 106.042 541.224 107.48C541.178 110.605 541.841 112.302 540.863 115.1C540.1 117.284 536.288 124.597 538.584 130.006C540.881 135.414 541.6 137.55 550.312 140.176C559.025 142.803 568.781 135.255 569.15 134.199Z" fill="#EEA7BF"/>
<path d="M598.017 113.305C593.813 106.643 570.852 92.993 559.897 87.0004L554.144 91.4797C555.854 98.5673 562.371 114.663 567.252 122.859C572.117 131.027 575.772 134.42 579.038 137.655C582.304 140.89 586.779 138.268 587.292 137.4C587.805 136.533 591.59 134.087 593.586 134.366C595.582 134.645 598.118 132.182 599.069 131.258C600.02 130.334 603.271 121.631 598.017 113.305Z" fill="#EEA7BF"/>
<path d="M575.921 42.356C575.17 49.2954 560.082 68.5023 552.506 75.2051L546.748 67.1212C546.391 62.9492 545.705 53.0979 545.417 51.1637C544.79 46.9669 538.769 35.4416 538.442 32.1867C538.114 28.9318 540.202 27.1496 542.812 23.8748C545.422 20.6 563.059 19.8559 569.337 22.2596C575.615 24.6632 576.859 33.6817 575.921 42.356Z" fill="#F7A2BF"/>
<path d="M536.881 70.7907C542.046 73.2658 545.292 79.8715 546.269 82.865C547.428 81.9442 549.428 81.3732 548.154 86.4549C546.562 92.8071 538.368 101.876 533.883 105.124C529.398 108.371 519.373 110.101 515.073 109.226C510.773 108.351 509.242 106.141 507.786 103.12C506.33 100.099 508.713 90.8829 510.065 88.2149C511.416 85.5468 523.479 72.5964 524.747 71.3647C526.015 70.133 530.426 67.6969 536.881 70.7907Z" fill="#F7A2BF"/>
<path d="M591.376 45.4552C589.207 50.224 566.717 69.286 555.911 77.4421L552.328 74.515C559.827 60.2481 575.145 31.1566 576.428 28.9251C578.031 26.1358 581.333 26.8712 582.825 27.3929C584.019 27.8102 586.396 31.1532 587.435 32.7725C588.822 33.3968 591.84 35.024 592.818 36.5383C594.041 38.4311 594.088 39.4943 591.376 45.4552Z" fill="#F7A2BF"/>
<path d="M582.846 56.0818C580.087 60.1419 564.206 71.4787 556.61 76.6395L555.251 84.1201L565.512 87.7066C588.01 91.3832 604.917 87.1742 611.249 84.4326C612.063 84.2986 615.458 82.9311 617.002 79.9533C618.545 76.9756 615.852 73.0614 614.312 71.4765C615.922 63.8745 613.702 55.8515 611.199 53.4305C607.913 50.253 597.841 47.924 596.087 48.1485C594.334 48.3731 586.295 51.0066 582.846 56.0818Z" fill="#EEA7BF"/>
<path d="M543.165 57.8567C544.164 59.8217 547.028 69.3401 547.674 73.5229L539.724 78.1772C538.176 76.7857 533.271 73.1483 531.392 70.2725C530.945 69.5878 530.13 65.9482 527.87 64.16C525.611 62.3717 526.267 58.274 527.24 57.3938C528.213 56.5136 530.165 54.4221 531.005 53.6062C531.844 52.7903 534.424 50.8073 537.187 52.106C539.951 53.4048 541.587 54.7534 543.165 57.8567Z" fill="#EE99B6" fill-opacity="0.8"/>
<path d="M578.982 77.5877L555.588 75.9565L549.95 78.7563L559.679 83.9321L563.679 86.7725C567.061 88.842 572.926 91.4232 575.459 92.1105C576.878 92.4955 579.487 90.7447 580.178 88.7674C580.731 87.1855 580.757 85.4193 580.7 84.734C581.221 84.6201 582.35 83.8239 582.701 81.5501C583.052 79.2764 580.368 77.9611 578.982 77.5877Z" fill="#EE99B6" fill-opacity="0.8"/>
<path d="M557.32 104.964C559.359 99.1308 552.809 88.6684 550.287 80.6492L547.41 80.3094C546.328 80.3378 543.897 80.901 542.834 82.9259C541.506 85.4571 542.532 90.0422 542.521 90.8046C542.497 92.4603 542.849 93.3597 542.33 94.8427C541.926 95.9999 539.906 99.8753 541.123 102.742C542.34 105.608 542.721 106.739 547.338 108.131C551.955 109.523 557.125 105.523 557.32 104.964Z" fill="#EE99B6" fill-opacity="0.8"/>
<path d="M572.618 93.8911C570.391 90.361 558.223 83.1272 552.417 79.9515L549.368 82.3252C550.274 86.0812 553.728 94.6107 556.315 98.9542C558.893 103.283 560.83 105.081 562.56 106.795C564.291 108.51 566.663 107.12 566.935 106.66C567.206 106.2 569.212 104.905 570.27 105.052C571.328 105.2 572.672 103.895 573.176 103.405C573.68 102.916 575.403 98.3037 572.618 93.8911Z" fill="#EE99B6" fill-opacity="0.8"/>
<path d="M560.908 56.2926C560.511 59.9701 552.515 70.1486 548.5 73.7007L545.449 69.4167C545.26 67.2058 544.896 61.9852 544.743 60.9602C544.411 58.7362 541.221 52.6284 541.047 50.9035C540.873 49.1787 541.98 48.2342 543.363 46.4988C544.746 44.7633 554.093 44.369 557.419 45.6428C560.746 46.9166 561.406 51.6958 560.908 56.2926Z" fill="#EE99B6" fill-opacity="0.8"/>
<path d="M540.22 71.3613C542.957 72.6729 544.677 76.1736 545.195 77.7599C545.809 77.272 546.869 76.9694 546.194 79.6624C545.35 83.0286 541.008 87.8347 538.631 89.5557C536.254 91.2767 530.942 92.1933 528.663 91.7296C526.384 91.266 525.573 90.0949 524.801 88.4938C524.03 86.8927 525.293 82.0089 526.009 80.595C526.725 79.1812 533.118 72.3182 533.79 71.6655C534.462 71.0128 536.799 69.7218 540.22 71.3613Z" fill="#EE99B6" fill-opacity="0.8"/>
<path d="M569.099 57.9351C567.949 60.4622 556.031 70.5639 550.304 74.8861L548.406 73.3349C552.38 65.7744 560.498 50.3577 561.177 49.1751C562.027 47.6969 563.777 48.0867 564.568 48.3631C565.2 48.5843 566.46 50.3559 567.01 51.214C567.745 51.5448 569.345 52.4072 569.863 53.2096C570.511 54.2127 570.536 54.7761 569.099 57.9351Z" fill="#EE99B6" fill-opacity="0.8"/>
<path d="M564.579 63.5665C563.117 65.7181 554.7 71.7259 550.675 74.4608L549.955 78.4251L555.393 80.3257C567.315 82.2741 576.275 80.0435 579.63 78.5907C580.062 78.5196 581.861 77.795 582.679 76.2169C583.497 74.6389 582.069 72.5646 581.254 71.7247C582.107 67.6961 580.93 63.4445 579.604 62.1615C577.862 60.4776 572.525 59.2433 571.596 59.3623C570.666 59.4813 566.406 60.8769 564.579 63.5665Z" fill="#EE99B6" fill-opacity="0.8"/>
<path d="M558.878 93.6278C552.087 94.927 545.407 89.8397 543.958 82.265C542.509 74.6904 546.84 67.4967 553.631 66.1975C560.422 64.8983 567.102 69.9856 568.551 77.5602C570.398 87.2124 565.669 92.3286 558.878 93.6278Z" fill="#FBBDD2"/>
<path d="M306.407 94.2479C301.8 93.3967 295.391 89.1921 292.763 87.1962L291.061 87.6236C293.02 89.0026 297.333 91.977 298.917 92.843C300.5 93.7091 303.976 94.9477 305.516 95.4588C306.383 97.1542 309.58 101.363 310.393 102.033C314.587 105.492 317.163 105.832 319.139 106.041C324.472 106.606 330.914 105.933 333.734 106.141C334.956 106.232 339.453 106.99 340.789 107.599C341.679 108.006 342.969 107.959 343.391 107.834C338.843 104.675 331.687 99.2236 326.958 96.4909C324.054 94.8126 317.994 94.9344 316.173 94.7147C314.352 94.495 312.165 95.312 306.407 94.2479Z" fill="#738B47"/>
<path d="M324.805 78.6702C323.522 80.4138 315.489 84.5067 311.633 86.3353L319.638 85.693C318.752 84.7423 319.526 83.869 320.025 83.5512L324.062 81.2963C324.062 81.2963 325.032 80.5169 325.428 80.2483C325.824 79.9797 327.338 77.9213 327.338 77.9213L329.04 77.4939C332.583 76.1812 340.438 72.7787 343.518 69.6701C347.368 65.7842 348.31 56.9596 348.142 54.2236C348.008 52.0348 349.249 45.0849 349.886 41.8836C349.893 41.5153 349.259 41.4968 346.67 44.3694C343.434 47.9602 333.41 47.3042 328.491 55.0687C324.555 61.2803 326.769 70.1623 328.368 73.8269L324.805 78.6702Z" fill="#738B47"/>
<path d="M296.851 77.3273C293.146 82.3643 285.193 86.1682 281.948 87.0772L289.992 86.6506C289.098 86.1419 289.461 85.5759 289.755 85.3565C290.768 85.0569 295.581 81.1202 297.86 79.1893C299.961 79.6147 303.481 78.2856 305.638 76.7003C307.125 75.6082 311.227 73.4662 313.279 67.3922C314.794 62.9081 309.787 50.764 306.555 45.2765L304.299 47.5354C297.441 52.0074 293.665 54.7742 291.788 61.8455C290.67 66.061 293.726 72.415 296.851 77.3273Z" fill="#738B47"/>
<path d="M346.385 81.6705C354.456 79.8152 363.258 72.747 366.514 68.8598C366.806 71.9114 368.706 74.1428 369.62 74.8771C367.768 73.5145 363.729 75.5196 361.941 76.6925C352.892 83.1729 344.623 85.4128 340.022 85.2003C315.442 89.5111 284.395 87.8824 264.216 87.4685L261.277 85.306C261.113 85.2174 260.977 85.1186 260.872 85.0084L261.277 85.306C263.897 86.7264 273.563 85.5086 275.882 86.1607C277.853 86.715 296.863 86.2934 306.121 86.0133C316.089 84.9487 331.116 85.1802 346.385 81.6705Z" fill="#738B47"/>
<path d="M388.206 73.0542C382.001 79.8725 376.393 79.9231 370.22 75.3813C364.407 71.1045 363.668 65.4524 370.725 57.2076C375.077 52.9682 384.81 50.9682 389.711 55.7097C392.824 59.4761 392.301 67.4891 388.206 73.0542Z" fill="url(#paint0_linear_385_332)"/>
<path d="M180.008 147.13C176.572 147.201 171.143 145.312 168.858 144.359L167.748 144.873C169.428 145.512 173.113 146.879 174.417 147.232C175.721 147.585 178.442 147.923 179.639 148.049C180.616 149.046 183.777 151.377 184.495 151.707C188.2 153.408 190.092 153.279 191.533 153.146C195.421 152.786 199.826 151.461 201.862 151.211C202.744 151.103 206.083 150.986 207.157 151.204C207.874 151.349 208.774 151.142 209.046 151.002C205.156 149.546 198.931 146.939 195.004 145.789C192.593 145.082 188.339 145.993 187.006 146.098C185.673 146.203 184.304 147.041 180.008 147.13Z" fill="#5D7834"/>
<path d="M184.445 137.013C181.403 140.052 176.075 142.283 174.01 142.799L178.815 142.637C178.376 142.315 178.687 141.973 178.897 141.842C179.544 141.671 183.049 139.32 184.72 138.166C185.882 138.452 188.181 137.682 189.721 136.738C190.782 136.087 193.561 134.826 195.807 131.132C197.465 128.405 196.597 120.907 195.635 117.507L193.921 118.862C189.122 121.516 186.428 123.164 184.114 127.471C182.735 130.038 183.446 133.967 184.445 137.013Z" fill="#5D7834"/>
<path d="M205.542 133.372C210.843 131.045 215.542 125.187 217.007 122.182C217.868 124.151 219.689 125.359 220.492 125.717C218.892 125.074 216.47 126.947 215.459 127.964C210.46 133.469 205.101 136.077 201.806 136.568C185.372 142.774 163.096 145.957 148.756 148.451L146.215 147.43C146.081 147.395 145.964 147.348 145.866 147.29L146.215 147.43C148.371 148.006 154.936 145.88 156.714 145.991C158.225 146.086 171.56 143.203 178.038 141.749C184.849 139.682 195.512 137.775 205.542 133.372Z" fill="#5D7834"/>
<path d="M233.227 121.969C230.309 127.307 226.36 128.109 221.024 125.966C216 123.948 214.265 120.33 217.479 113.936C219.642 110.55 226.086 107.899 230.566 110.348C233.573 112.4 234.924 117.746 233.227 121.969Z" fill="#5D7834"/>
<path d="M402.109 60.8472C396.375 64.8927 389.085 64.4293 385.828 59.8121C382.571 55.1949 384.578 48.1724 390.313 44.1269C396.047 40.0814 403.336 40.5448 406.594 45.162C409.851 49.7792 407.843 56.8017 402.109 60.8472Z" fill="#E889A9"/>
<path d="M389.483 58.7121C380.204 64.3273 370.846 65.8453 368.581 62.1027C366.316 58.36 367.545 50.0132 376.824 44.398C386.103 38.7828 401.132 38.5809 402.182 41.7682C402.095 46.003 397.524 51.5198 389.483 58.7121Z" fill="url(#paint1_linear_385_332)"/>
<path d="M398.623 75.5519C388.922 82.9045 374.934 81.3091 371.925 76.6343C368.916 71.9595 366.494 62.3341 382.761 55.0088C391.951 50.8705 405.874 49.3064 409.558 52.8239C411.789 58.5077 404.362 71.2023 398.623 75.5519Z" fill="url(#paint2_linear_385_332)"/>
<path d="M370.638 71.9986C373.955 70.8149 381.667 69.9815 387.73 73.0907C394.389 76.505 396.51 80.1042 396.872 81.0259C393.375 83.1073 384.065 86.3357 377.979 83.4768C371.893 80.6178 368.526 77.9094 367.603 76.9126C365.758 77.9322 361.651 79.8156 359.988 79.1919C358.325 78.5681 358.239 78.0466 358.403 77.8638C358.109 77.5657 357.749 76.738 358.662 75.8123C359.575 74.8867 363.344 73.7386 365.114 73.2803C363.561 70.2262 360.644 63.157 361.405 59.313C362.356 54.5081 363.005 48.935 369.808 44.1376C371.662 46.6012 374.16 49.8045 374.631 56.4268C375.103 63.049 372.166 69.5673 370.638 71.9986Z" fill="#738B47"/>
<defs>
<linearGradient id="paint0_linear_385_332" x1="216.526" y1="146.779" x2="284.604" y2="-96.5984" gradientUnits="userSpaceOnUse">
<stop stop-color="#506D2A"/>
<stop offset="1" stop-color="#93A760"/>
</linearGradient>
<linearGradient id="paint1_linear_385_332" x1="291.563" y1="51.2392" x2="291.402" y2="143.843" gradientUnits="userSpaceOnUse">
<stop offset="1" stop-color="#F3AAC3"/>
</linearGradient>
<linearGradient id="paint2_linear_385_332" x1="525.971" y1="21.785" x2="526.335" y2="206.027" gradientUnits="userSpaceOnUse">
<stop stop-color="#F1B6CA"/>
</linearGradient>
</defs>
</svg>
