<svg width="429" height="150" viewBox="0 0 429 150" fill="none" xmlns="http://www.w3.org/2000/svg">
<path d="M74.6 -6.10352e-05C87.1333 -6.10352e-05 95.9333 1.99994 101 5.99995C106.067 9.86661 108.6 15.5333 108.6 22.9999C108.6 30.7333 105.6 36.5333 99.6 40.3999C93.7333 44.1333 84.6 45.9999 72.2 45.9999C68.0667 45.9999 63.4 45.9333 58.2 45.7999C53 45.5333 47.5333 45.1333 41.8 44.5999L42.8 42.9999C44.1333 45.9333 44.8 49.0666 44.8 52.3999C44.8 55.7333 44.2667 58.9333 43.2 61.9999L40 60.5999C42.9333 59.7999 46.4667 59.1333 50.6 58.5999C54.8667 57.9333 59.2667 57.3999 63.8 56.9999C68.3333 56.5999 72.4667 56.3999 76.2 56.3999C86.3333 56.3999 93.4 57.9333 97.4 60.9999C101.533 64.0666 103.6 67.8666 103.6 72.3999C103.6 77.3333 101.267 81.5333 96.6 84.9999C92.0667 88.3333 84.1333 89.9999 72.8 89.9999C67.8667 89.9999 62.5333 89.7333 56.8 89.1999C51.0667 88.6666 45.2667 87.9333 39.4 86.9999L42.6 84.5999C43.8 86.5999 44.5333 88.9999 44.8 91.7999C45.2 94.5999 45.1333 97.3999 44.6 100.2C44.0667 102.867 43.0667 105.267 41.6 107.4V105.4C45.0667 104.333 49 103.467 53.4 102.8C57.8 102 62.3333 101.4 67 101C71.6667 100.6 76 100.4 80 100.4C89.4667 100.4 96.5333 102 101.2 105.2C105.867 108.4 108.2 113.6 108.2 120.8C108.2 125.467 107.267 129.333 105.4 132.4C103.667 135.467 100.6 138.133 96.2 140.4C92.7333 142.133 88.3333 143.6 83 144.8C77.8 146 72.2 146.867 66.2 147.4C60.3333 148.067 54.5333 148.4 48.8 148.4C38.2667 148.4 29.5333 147.133 22.6 144.6C15.8 141.933 10.8667 138.133 7.8 133.2C5 128.4 3 122.133 1.8 114.4C0.6 106.667 7.45058e-08 96.0666 7.45058e-08 82.5999C7.45058e-08 69.7999 0.466667 59.2666 1.4 50.9999C2.33333 42.5999 3.66667 35.7999 5.4 30.6C7.13333 25.3999 9.13333 21.2666 11.4 18.1999C14.8667 13.5333 19.8 9.86661 26.2 7.19994C32.6 4.53328 40 2.66661 48.4 1.59994C56.8 0.533273 65.5333 -6.10352e-05 74.6 -6.10352e-05ZM177.225 7.39994C194.825 7.39994 207.758 11.2666 216.025 18.9999C224.425 26.7333 228.625 36.9333 228.625 49.5999C228.625 58.6666 226.692 66.5333 222.825 73.2C219.092 79.8666 213.892 85.0666 207.225 88.7999C200.692 92.3999 193.292 94.1999 185.025 94.1999C181.558 94.1999 177.625 93.9333 173.225 93.3999C168.958 92.7333 165.092 91.7333 161.625 90.3999L165.425 86.7999C166.492 89.4666 167.358 92.7333 168.025 96.5999C168.825 100.333 169.425 104.267 169.825 108.4C170.358 112.533 170.625 116.333 170.625 119.8C170.625 129.133 168.358 136.267 163.825 141.2C159.425 146.133 152.758 148.6 143.825 148.6C136.492 148.6 130.758 147 126.625 143.8C122.492 140.467 119.625 135.067 118.025 127.6C116.425 120.133 115.625 110.2 115.625 97.7999C115.625 82.3333 116.692 69.3333 118.825 58.7999C120.958 48.1333 123.692 39.7333 127.025 33.5999C131.425 25.4666 137.758 19.0666 146.025 14.3999C154.425 9.73327 164.825 7.39994 177.225 7.39994ZM177.425 71.3999C184.492 71.3999 190.492 69.5333 195.425 65.8C200.358 61.9333 202.825 56.5999 202.825 49.7999C202.825 44.8666 201.225 40.6666 198.025 37.1999C194.958 33.5999 189.692 31.7999 182.225 31.7999C176.892 31.7999 172.225 32.7999 168.225 34.7999C164.358 36.6666 161.358 39.2666 159.225 42.6C157.225 45.7999 156.225 49.3999 156.225 53.3999C156.225 58.4666 157.958 62.7333 161.425 66.1999C165.025 69.6666 170.358 71.3999 177.425 71.3999ZM264.747 138.8C259.147 138.8 254.28 136.867 250.147 133C246.147 129 243.014 122.133 240.747 112.4C239.68 107.6 238.747 102.133 237.947 95.9999C237.147 89.7333 236.547 83.4666 236.147 77.1999C235.747 70.9333 235.547 65.3999 235.547 60.5999C235.547 44.8666 236.547 32.7999 238.547 24.3999C240.547 15.9999 243.547 10.1999 247.547 6.99994C251.68 3.79995 256.814 2.19995 262.947 2.19995C268.814 2.19995 273.547 4.13328 277.147 7.99994C280.747 11.8666 283.814 18.5333 286.347 27.9999C287.28 31.7333 288.147 36.1333 288.947 41.1999C289.747 46.1333 290.414 51.2666 290.947 56.5999C291.48 61.7999 291.88 66.8666 292.147 71.8C292.414 76.7333 292.547 80.9999 292.547 84.5999C292.547 95.9333 291.747 105.667 290.147 113.8C288.68 121.8 285.947 128 281.947 132.4C277.947 136.667 272.214 138.8 264.747 138.8ZM376.739 149.4C359.672 149.4 345.472 146.6 334.139 141C322.806 135.267 314.339 127.267 308.739 117C303.272 106.733 300.539 94.7333 300.539 80.9999C300.539 65.7999 303.672 52.5333 309.939 41.1999C316.206 29.7333 325.206 20.8666 336.939 14.5999C348.806 8.33328 363.072 5.19994 379.739 5.19994C395.339 5.19994 407.272 8.33328 415.539 14.5999C423.939 20.7333 428.139 29.1999 428.139 39.9999C428.139 47.8666 425.939 54.1333 421.539 58.7999C417.272 63.3333 411.006 65.5999 402.739 65.5999C398.206 65.5999 394.272 64.9999 390.939 63.7999C387.606 62.5999 384.272 61.4666 380.939 60.3999C377.606 59.1999 373.739 58.5999 369.339 58.5999C365.606 58.5999 362.072 59.1999 358.739 60.3999C355.539 61.4666 352.939 63.3999 350.939 66.1999C349.072 68.8666 348.139 72.5999 348.139 77.3999C348.139 83.6666 350.006 88.1333 353.739 90.8C357.606 93.4666 362.672 94.7999 368.939 94.7999C372.139 94.7999 375.739 94.5999 379.739 94.1999C383.739 93.6666 387.672 93.1999 391.539 92.7999C395.539 92.3999 398.939 92.1999 401.739 92.1999C408.806 92.1999 414.406 94.2 418.539 98.2C422.806 102.067 424.939 107.933 424.939 115.8C424.939 126.067 421.006 134.267 413.139 140.4C405.406 146.4 393.272 149.4 376.739 149.4Z" fill="#D1DAAF"/>
</svg>
