<svg width="374" height="399" viewBox="0 0 374 399" fill="none" xmlns="http://www.w3.org/2000/svg">
<path d="M167.993 102.353C172.783 101.477 194.641 101.428 203.829 102.708L208.142 122.543C204.177 124.947 193.227 133.057 185.932 135.225C184.195 135.742 176.028 135.165 170.748 138.829C165.468 142.494 157.346 138.504 156.169 135.879C154.991 133.254 151.948 127.784 150.814 125.483C149.68 123.182 147.292 116.448 151.892 111.403C156.491 106.357 160.427 103.737 167.993 102.353Z" fill="#F1B6CA"/>
<path d="M233.672 38.7972L214.313 87.4439L216.325 101.193L233.781 83.8123L242.447 77.1187C249.08 71.2493 258.477 60.4293 261.641 55.485C263.413 52.7163 261.531 46.0658 257.867 43.3446C254.935 41.1677 251.259 39.9937 249.788 39.6788C249.905 38.501 249.009 35.5989 244.493 33.4123C239.977 31.2256 235.397 36.0911 233.672 38.7972Z" fill="#F1B6CA"/>
<path d="M276.156 102.154C265.347 94.1262 239.002 101.404 220.513 101.677L217.841 107.571C217.163 109.888 216.683 115.406 220.193 118.947C224.581 123.373 234.87 124.099 236.456 124.606C239.903 125.707 242.023 125.531 244.771 127.572C246.915 129.164 253.642 135.911 260.466 135.143C267.29 134.376 269.916 134.284 275.974 125.361C282.033 116.439 277.192 102.923 276.156 102.154Z" fill="#F1B6CA"/>
<path d="M263.428 62.6474C254.527 65.1404 231.105 86.3955 220.506 96.7115L223.392 104.69C231.864 105.147 252.056 103.22 262.902 100.48C273.712 97.7493 278.793 94.7753 283.558 92.1868C288.323 89.5983 287.034 83.6802 286.257 82.8119C285.481 81.9435 284.139 76.8617 285.169 74.7091C286.199 72.5565 284.385 68.8752 283.705 67.4946L283.705 67.4946C283.025 66.1141 274.554 59.5312 263.428 62.6474Z" fill="#F1B6CA"/>
<path d="M176.817 63.6809C184.237 66.8569 200.072 90.2888 204.763 101.067L193.724 104.832C188.972 103.831 177.807 101.294 175.559 100.969C170.681 100.265 155.734 103.168 152.008 102.444C148.282 101.719 147.062 98.7702 144.375 94.7327C141.689 90.6951 147.236 70.5968 152.167 64.3392C157.099 58.0815 167.543 59.7108 176.817 63.6809Z" fill="#F1B6CA"/>
<path d="M194.227 117.168C198.835 112.188 207.329 110.754 210.999 110.659C210.398 109.045 210.487 106.603 215.659 109.743C222.123 113.669 229.214 125.938 231.193 132.076C233.172 138.214 231.467 150.078 228.944 154.623C226.421 159.169 223.419 160.149 219.544 160.773C215.67 161.397 206.318 155.618 203.849 153.201C201.381 150.784 191.386 132.857 190.479 131.017C189.572 129.176 188.466 123.394 194.227 117.168Z" fill="#F1B6CA"/>
<path d="M185.836 47.3283C190.337 51.3716 203.338 83.0856 208.473 97.9869L203.934 101.036C190.832 87.8035 164.126 60.7911 162.116 58.5982C159.604 55.8571 161.612 52.3881 162.729 50.8837C163.623 49.6802 168.186 48.1285 170.356 47.5031C171.549 46.1521 174.443 43.3021 176.474 42.71C179.014 41.97 180.209 42.2742 185.836 47.3283Z" fill="#F1B6CA"/>
<path d="M194.531 60.4974C198.034 64.9663 204.86 86.6482 207.836 96.9306L215.635 100.972L223.317 90.6296C235.519 66.5457 236.962 46.1038 236.211 38.0571C236.357 37.0954 236.068 32.8153 233.325 30.0782C230.583 27.3411 225.272 29.0573 222.959 30.2575C215.116 25.8914 205.423 25.6948 201.835 27.699C197.127 30.3294 190.907 40.8826 190.522 42.9312C190.138 44.9799 190.153 54.9112 194.531 60.4974Z" fill="#F1B6CA"/>
<path d="M226.913 104.623C226.214 110.195 219.539 114.087 212.004 113.315C204.469 112.543 198.927 107.399 199.626 101.827C200.325 96.2545 207 92.3629 214.535 93.135C224.137 94.1185 227.612 99.0502 226.913 104.623Z" fill="#F1B6CA"/>
<path d="M245.615 180.567C247.271 182.487 253.066 192.379 254.921 196.91L247.205 204.551C245.085 203.443 238.572 200.804 235.677 198.12C234.988 197.48 233.089 193.614 230.058 192.271C227.027 190.928 226.663 186.103 227.524 184.817C228.385 183.531 230.023 180.584 230.751 179.411C231.479 178.238 233.855 175.224 237.322 175.863C240.789 176.502 242.999 177.534 245.615 180.567Z" fill="#F1B6CA"/>
<path d="M291.335 192.117L264.504 197.287L258.898 202.139L271.267 205.069L276.545 207.079C280.917 208.403 288.229 209.56 291.272 209.577C292.976 209.586 295.448 206.827 295.695 204.386C295.893 202.434 295.446 200.431 295.198 199.674C295.754 199.389 296.813 198.151 296.597 195.478C296.38 192.805 292.999 192.123 291.335 192.117Z" fill="#F1B6CA"/>
<path d="M274.271 229.532C275 222.332 264.793 212.478 259.788 204.177L256.451 204.655C255.237 205.012 252.647 206.376 251.994 208.982C251.177 212.239 253.57 217.11 253.762 217.975C254.181 219.852 254.82 220.763 254.634 222.593C254.49 224.022 253.255 229.005 255.4 231.877C257.545 234.75 258.279 235.914 263.863 236.102C269.446 236.29 274.201 230.222 274.271 229.532Z" fill="#F1B6CA"/>
<path d="M288.546 212.44C285.083 209.12 269.407 204.597 262.003 202.75L259.203 206.345C261.237 210.316 267.43 218.915 271.518 223.046C275.592 227.162 278.262 228.613 280.676 230.03C283.09 231.448 285.391 229.167 285.574 228.566C285.756 227.966 287.671 225.901 288.904 225.751C290.137 225.6 291.301 223.723 291.738 223.019L291.738 223.019C292.174 222.315 292.876 216.589 288.546 212.44Z" fill="#F1B6CA"/>
<path d="M265.21 173.481C265.751 177.754 259.473 191.648 255.9 196.864L251.304 192.939C250.496 190.499 248.679 184.711 248.231 183.599C247.257 181.187 242.013 175.244 241.352 173.348C240.692 171.452 241.686 170.053 242.779 167.678C243.872 165.303 254.309 162.057 258.405 162.498C262.501 162.94 264.533 168.14 265.21 173.481Z" fill="#F1B6CA"/>
<path d="M245.929 196.703C249.37 197.364 252.253 200.803 253.265 202.439C253.827 201.704 254.941 201.045 254.905 204.289C254.859 208.344 251.255 215.074 249.037 217.73C246.82 220.387 241.073 223.015 238.377 223.174C235.682 223.333 234.451 222.254 233.15 220.677C231.848 219.099 231.958 213.204 232.385 211.393C232.812 209.581 238.175 199.913 238.757 198.974C239.339 198.036 241.628 195.877 245.929 196.703Z" fill="#F1B6CA"/>
<path d="M274.892 172.882C274.276 176.081 263.551 191.063 258.255 197.662L255.695 196.479C258.142 186.748 263.148 166.901 263.596 165.362C264.156 163.437 266.235 163.353 267.202 163.428C267.975 163.488 269.873 165.112 270.725 165.916C271.644 166.069 273.68 166.564 274.481 167.315C275.482 168.254 275.662 168.883 274.892 172.882Z" fill="#F1B6CA"/>
<path d="M271.309 180.597C270.239 183.466 262.363 192.775 258.558 197.07L258.814 201.764L265.46 202.281C279.435 200.908 288.942 195.703 292.336 193.056C292.804 192.846 294.638 191.488 295.136 189.461C295.633 187.433 293.464 185.518 292.318 184.814C292.195 180.008 289.723 175.558 287.881 174.507C285.463 173.127 279.109 173.333 278.093 173.745C277.077 174.158 272.647 177.012 271.309 180.597Z" fill="#F1B6CA"/>
<path d="M260.163 207.922C257.491 209.202 253.99 207.292 252.345 203.656C250.699 200.019 251.532 196.033 254.204 194.753C256.877 193.473 260.377 195.382 262.022 199.019C264.119 203.653 262.835 206.641 260.163 207.922Z" fill="#F1B6CA"/>
<path d="M75.549 299.196C70.9821 298.285 64.7407 293.977 62.1908 291.937L60.4762 292.347C62.3806 293.758 66.5765 296.803 68.1246 297.693C69.6727 298.584 73.0967 299.872 74.6152 300.404C75.4182 302.121 78.4543 306.394 79.2405 307.078C83.2999 310.609 85.8576 310.982 87.8227 311.216C93.1251 311.848 99.5797 311.248 102.387 311.492C103.603 311.597 108.064 312.414 109.375 313.043C110.248 313.463 111.537 313.431 111.963 313.311C107.541 310.077 100.599 304.506 95.9792 301.699C93.1422 299.976 87.0888 300.026 85.2797 299.783C83.4706 299.54 81.2576 300.336 75.549 299.196Z" fill="#F1B6CA"/>
<path d="M94.4871 283.74C93.1425 285.48 84.9737 289.502 81.0573 291.296L89.0712 290.746C88.2215 289.779 89.0269 288.909 89.5358 288.595L93.649 286.374C93.649 286.374 94.6458 285.602 95.0508 285.336C95.4558 285.07 97.0432 283.017 97.0432 283.017L98.7578 282.607C102.342 281.329 110.308 277.999 113.497 274.907C117.483 271.043 118.749 262.174 118.682 259.419C118.629 257.214 120.124 250.236 120.878 247.022C120.898 246.651 120.266 246.625 117.576 249.485C114.213 253.059 104.233 252.279 99.0363 260.034C94.8791 266.238 96.7614 275.202 98.2222 278.909L94.4871 283.74Z" fill="#F1B6CA"/>
<path d="M66.6356 282.055C62.7511 287.079 54.6735 290.812 51.4003 291.688L59.4456 291.355C58.5715 290.832 58.9554 290.267 59.2566 290.05C60.279 289.76 65.2276 285.856 67.5741 283.941C69.6548 284.394 73.2174 283.098 75.4293 281.529C76.9529 280.448 81.1269 278.341 83.399 272.253C85.0764 267.759 80.5259 255.478 77.5031 249.918L75.1675 252.164C68.1573 256.582 64.287 259.321 62.153 266.415C60.8807 270.643 63.6968 277.074 66.6356 282.055Z" fill="#F1B6CA"/>
<path d="M115.916 287.018C124.041 285.247 133.086 278.24 136.48 274.367C136.659 277.441 138.473 279.71 139.358 280.459C137.56 279.066 133.454 281.036 131.627 282.194C122.355 288.607 114.02 290.763 109.435 290.494C84.7419 294.538 53.8133 292.527 33.6873 291.87L30.8331 289.658C30.6732 289.567 30.5411 289.466 30.4403 289.354L30.8331 289.658C33.3962 291.119 43.0894 290.009 45.3801 290.693C47.3269 291.274 66.3165 291.077 75.568 290.906C85.5563 289.954 100.547 290.367 115.916 287.018Z" fill="#F1B6CA"/>
<path d="M157.977 278.847C151.532 285.635 145.933 285.618 139.938 280.974C134.294 276.601 133.765 270.904 141.113 262.692C145.613 258.478 155.402 256.581 160.118 261.411C163.086 265.239 162.269 273.296 157.977 278.847Z" fill="#F1B6CA"/>
<path d="M75.5491 299.197C70.9822 298.285 64.7408 293.977 62.1909 291.937L60.4763 292.347C62.3807 293.758 66.5766 296.803 68.1247 297.693C69.6728 298.584 73.0968 299.872 74.6153 300.404C75.4183 302.121 78.4544 306.394 79.2407 307.078C83.3 310.609 85.8577 310.982 87.8228 311.217C93.1253 311.848 99.5798 311.248 102.387 311.492C103.603 311.598 108.064 312.414 109.375 313.043C110.249 313.463 111.537 313.432 111.963 313.311C107.541 310.078 100.599 304.506 95.9793 301.699C93.1423 299.976 87.089 300.026 85.2798 299.783C83.4707 299.54 81.2577 300.336 75.5491 299.197Z" fill="#F1B6CA"/>
<path d="M94.4872 283.741C93.1426 285.48 84.9738 289.503 81.0575 291.297L89.0713 290.746C88.2216 289.779 89.027 288.909 89.5359 288.595L93.6491 286.374C93.6491 286.374 94.6459 285.602 95.0509 285.336C95.4559 285.071 97.0433 283.017 97.0433 283.017L98.7579 282.608C102.342 281.329 110.308 277.999 113.497 274.907C117.483 271.043 118.749 262.174 118.682 259.419C118.629 257.215 120.124 250.236 120.878 247.022C120.898 246.651 120.266 246.625 117.576 249.485C114.213 253.059 104.233 252.279 99.0364 260.034C94.8792 266.238 96.7615 275.203 98.2223 278.909L94.4872 283.741Z" fill="#F1B6CA"/>
<path d="M66.6358 282.055C62.7512 287.079 54.6736 290.812 51.4004 291.688L59.4457 291.355C58.5717 290.832 58.9555 290.267 59.2567 290.05C60.2792 289.761 65.2277 285.857 67.5742 283.941C69.6549 284.394 73.2175 283.099 75.4294 281.529C76.953 280.448 81.127 278.341 83.3991 272.254C85.0765 267.759 80.526 255.479 77.5032 249.918L75.1676 252.164C68.1574 256.582 64.2872 259.321 62.1531 266.415C60.8809 270.644 63.6969 277.074 66.6358 282.055Z" fill="#F1B6CA"/>
<path d="M115.916 287.018C124.041 285.247 133.087 278.24 136.48 274.367C136.659 277.441 138.473 279.71 139.358 280.46C137.56 279.066 133.455 281.036 131.627 282.195C122.355 288.608 114.02 290.763 109.435 290.494C84.742 294.538 53.8134 292.527 33.6874 291.87L30.8332 289.658C30.6734 289.567 30.5412 289.466 30.4404 289.354L30.8332 289.658C33.3963 291.119 43.0895 290.009 45.3802 290.693C47.3271 291.274 66.3167 291.078 75.5681 290.906C85.5565 289.954 100.547 290.367 115.916 287.018Z" fill="#F1B6CA"/>
<path d="M157.977 278.847C151.532 285.635 145.933 285.618 139.938 280.974C134.294 276.601 133.765 270.904 141.113 262.692C145.613 258.478 155.402 256.581 160.118 261.411C163.086 265.239 162.269 273.296 157.977 278.847Z" fill="#F1B6CA"/>
<path d="M145.769 209.125C146.076 211.005 147.916 212.76 148.797 213.403L148.564 214.308C147.957 213.798 146.652 212.658 146.278 212.175C145.904 211.693 145.394 210.444 145.185 209.88C144.41 209.963 142.505 209.688 142.208 209.505C140.673 208.557 140.565 207.468 140.506 206.617C140.347 204.321 140.789 201.163 140.747 199.923C140.728 199.386 140.463 197.531 140.204 197.089C140.032 196.794 140.079 196.187 140.145 195.957C141.533 197.153 143.94 198.897 145.125 200.298C145.852 201.158 145.676 203.984 145.743 204.76C145.81 205.536 145.385 206.776 145.769 209.125Z" fill="#F1B6CA"/>
<path d="M153.414 196.218C152.573 197.305 150.502 202.17 149.571 204.466L150.029 200.596C150.456 200.734 150.879 200.129 151.038 199.809L152.171 197.307C152.171 197.307 152.555 196.639 152.688 196.38C152.822 196.121 153.814 194.838 153.814 194.838L154.047 193.932C154.731 191.927 156.476 187.341 157.99 185.037C159.882 182.158 164.027 179.213 165.302 178.511C166.323 177.95 169.597 175.401 171.106 174.196C171.278 174.088 171.274 174.375 169.88 176.385C168.138 178.898 168.247 183.328 164.52 187.803C161.539 191.384 157.43 192.892 155.748 193.198L153.414 196.218Z" fill="#F1B6CA"/>
<path d="M153.491 208.711C151.063 211.851 149.128 216.597 148.639 218.35L148.997 214.523C149.217 214.791 149.489 214.462 149.598 214.264C149.758 213.712 151.693 210.375 152.64 208.776C152.483 207.93 153.174 205.93 153.957 204.485C154.497 203.49 155.579 200.991 158.459 198.317C160.586 196.343 166.164 195.193 168.666 195.12L167.566 196.802C165.34 201.234 163.972 203.76 160.629 206.637C158.636 208.352 155.726 208.753 153.491 208.711Z" fill="#F1B6CA"/>
<path d="M152.436 187.132C153.462 182.886 156.94 176.821 158.822 174.215C157.401 174.949 156.395 174.709 156.07 174.497C156.67 174.962 155.653 177.393 155.07 178.55C151.862 184.563 150.652 189.009 150.661 191.067C148.161 203.616 148.311 217.452 148.107 226.629L149.06 227.367C149.099 227.417 149.142 227.452 149.192 227.469L149.06 227.367C148.448 226.564 149.208 221.765 148.948 220.883C148.728 220.133 149.3 211.257 149.613 206.913C150.307 202.019 150.495 195.163 152.436 187.132Z" fill="#F1B6CA"/>
<path d="M157.288 165.417C153.978 170.216 153.844 172.813 155.846 174.364C157.731 175.824 160.359 174.556 164.352 168.959C166.42 165.748 167.547 160.696 165.426 159.788C163.727 159.426 159.97 161.948 157.288 165.417Z" fill="#F1B6CA"/>
<ellipse cx="10.9385" cy="13.9036" rx="10.9385" ry="13.9036" transform="matrix(0.924044 0.382286 -0.393435 0.919352 199.407 190.308)" fill="#F1B6CA"/>
<path d="M201.326 216.906C195.917 227.479 188.145 234.353 183.966 232.261C179.787 230.169 176.253 221.82 181.661 211.248C187.07 200.675 200.804 191.678 203.553 193.975C205.84 197.896 204.713 205.618 201.326 216.906Z" fill="#F1B6CA"/>
<path d="M219.162 226.936C214.336 239.344 200.557 246.088 195.171 243.58C189.785 241.072 182.172 233.696 193.064 217.463C199.216 208.293 211.169 198.7 216.53 199.753C221.762 203.64 222.017 219.596 219.162 226.936Z" fill="#F1B6CA"/>
<path d="M191.393 240.098C193.788 237.071 200.426 231.788 207.751 231.074C215.793 230.29 219.76 232.335 220.609 232.965C218.551 236.918 211.778 245.328 204.574 246.283C197.369 247.239 192.752 246.739 191.344 246.369C190.214 248.383 187.484 252.512 185.603 252.917C183.723 253.322 183.351 252.896 183.401 252.633C182.963 252.533 182.168 251.987 182.492 250.606C182.816 249.225 185.646 245.966 187.02 244.509C183.882 242.629 177.243 237.878 175.795 233.919C173.984 228.971 171.467 223.497 175.053 215.123C178.137 216.288 182.23 217.751 186.366 223.526C190.503 229.301 191.441 236.981 191.393 240.098Z" fill="#F1B6CA"/>
</svg>
