<svg width="330" height="262" viewBox="0 0 330 262" fill="none" xmlns="http://www.w3.org/2000/svg">
<path d="M114.996 29.9554C61.058 2.4625 21.1686 -2.09283 8.56118 15.1952C-9.87926 40.4819 45.1169 112.124 131.399 175.213C217.68 238.301 302.574 268.946 321.015 243.659C333.181 226.975 317.159 192.318 277.496 151.046M98.7857 39.4872C60.7224 21.1705 32.0224 15.1082 24.0424 26.0509C10.3744 44.7933 62.667 106.325 140.841 163.485C219.015 220.645 293.468 251.789 307.136 233.046C314.92 222.373 301.313 197.824 273.717 168.108M277.495 139.693C277.495 204.48 225.045 257 160.345 257C95.6439 257 43.1937 204.48 43.1937 139.693C43.1937 74.9069 95.6439 22.387 160.345 22.387C225.045 22.387 277.495 74.9069 277.495 139.693Z" stroke="white" stroke-width="10" stroke-linecap="round" stroke-linejoin="round"/>
</svg>
