<svg width="550" height="207" viewBox="0 0 550 207" fill="none" xmlns="http://www.w3.org/2000/svg">
<rect x="-1.7998" y="178.55" width="574.606" height="3.05678" rx="1.52839" transform="rotate(-9.23695 -1.7998 178.55)" stroke="white" stroke-width="3.05678"/>
<path d="M90.0669 166.005C91.1193 172.041 93.6455 177.423 96.3504 182.064C97.7052 184.389 99.1235 186.559 100.441 188.539C100.706 188.936 100.965 189.324 101.218 189.703C102.244 191.239 103.174 192.632 103.98 193.938C104.989 195.574 105.692 196.903 106.081 197.998C106.474 199.102 106.434 199.655 106.361 199.904C106.316 200.06 106.165 200.453 105.243 200.973C104.26 201.528 102.619 202.093 99.9987 202.55C79.456 206.132 59.8992 192.382 56.3174 171.84C52.7356 151.297 66.4852 131.74 87.028 128.158C89.6472 127.702 91.3814 127.68 92.4923 127.871C93.5335 128.05 93.8114 128.37 93.9104 128.507C94.0667 128.723 94.2928 129.238 94.2978 130.417C94.3028 131.585 94.0914 133.08 93.6968 134.967C93.3805 136.479 92.9755 138.115 92.5287 139.92C92.4204 140.358 92.3097 140.805 92.1972 141.263C91.6283 143.577 91.029 146.104 90.5419 148.754C89.5693 154.045 89.0146 159.97 90.0669 166.005Z" stroke="white" stroke-width="6"/>
<path d="M379.077 118.055C380.966 128.889 380.737 138.657 377.654 146.038C374.665 153.193 368.886 158.397 358.765 160.162C338.222 163.743 318.665 149.994 315.084 129.451C311.502 108.908 325.251 89.3514 345.794 85.7697C355.947 83.9995 363.125 86.8525 368.323 92.4524C373.688 98.2331 377.188 107.22 379.077 118.055ZM532.4 89.3747C536.036 110.229 524.021 130.47 503.773 134.001C483.231 137.582 463.674 123.833 460.092 103.29C456.51 82.7473 470.26 63.1905 490.803 59.6087C511.286 56.0374 528.807 68.7715 532.4 89.3747Z" stroke="white" stroke-width="6"/>
<path d="M230.887 141.324C231.897 147.119 233.656 152.519 235.309 157.3C235.574 158.068 235.835 158.815 236.09 159.543C237.453 163.447 238.619 166.786 239.24 169.73C239.979 173.237 239.752 175.389 238.811 176.832C237.877 178.264 235.697 179.815 230.462 180.728C209.919 184.309 190.363 170.56 186.781 150.017C183.199 129.474 196.949 109.917 217.491 106.336C222.797 105.411 225.391 106.035 226.722 106.95C227.979 107.815 228.857 109.462 229.302 112.733C229.67 115.436 229.677 118.661 229.685 122.512C229.687 123.339 229.689 124.195 229.694 125.08C229.724 129.966 229.875 135.524 230.887 141.324Z" stroke="white" stroke-width="6"/>
</svg>
