<svg width="200" height="313" viewBox="0 0 200 313" fill="none" xmlns="http://www.w3.org/2000/svg">
<path d="M95.4224 29.3899C83.6818 38.2234 72.3711 50.2673 62.9036 66.6655C56.8834 77.0928 51.3846 87.3881 46.5366 97.4387M95.4224 29.3899C133.02 1.10197 175.027 5.73828 175.027 5.73828C175.027 5.73828 198.48 40.75 193.792 86.1838M95.4224 29.3899C95.4224 29.3899 120.517 54.9287 140.12 66.1987C159.51 77.3459 193.792 86.1838 193.792 86.1838M193.792 86.1838C192.257 101.061 187.705 117.055 178.324 133.303C167.559 151.948 156.001 169.269 143.984 183.957M35.9945 121.609C35.9945 121.609 63.952 148.77 85.3307 161.096C106.628 173.375 143.984 183.957 143.984 183.957M35.9945 121.609C39.0233 113.758 42.5611 105.681 46.5366 97.4387M35.9945 121.609C34.3054 125.988 32.7747 130.296 31.4147 134.523M143.984 183.957C120.758 212.344 95.8141 230.896 71.5605 230.165L31.9828 207.314C20.7547 189.394 21.9546 163.923 31.4147 134.523M46.5366 97.4387C46.5366 97.4387 1.60165 87.1633 -9.47875 106.358C-20.1971 124.926 -32.8444 175.388 -32.8444 175.388L-26.6612 178.958L-0.457626 133.572C5.56674 123.137 31.4147 134.523 31.4147 134.523M158.25 164.687C158.25 164.687 189.616 198.464 178.533 217.658C167.813 236.224 130.435 272.408 130.435 272.408L124.252 268.838L150.455 223.452C156.48 213.017 133.696 196.325 133.696 196.325M32.5621 204.898C32.5621 204.898 10.392 214.162 1.96991 224.566C-8.48217 237.478 -8.14305 265.881 -8.14305 265.881L17.8356 249.444L-9.31186 315.504L33.7013 274.322L33.117 299.134C33.117 299.134 65.6077 273.563 70.6662 262.656C75.7246 251.749 73.7836 228.697 73.7836 228.697M139.52 129.118C130.969 143.929 112.04 149.011 97.2424 140.467C82.4445 131.923 77.3808 112.99 85.9324 98.1786C94.4839 83.3669 113.412 78.2856 128.21 86.8292C143.008 95.3728 148.072 114.306 139.52 129.118Z" stroke="white" stroke-width="10" stroke-linecap="round" stroke-linejoin="round"/>
</svg>
