<svg width="320" height="243" viewBox="0 0 320 243" fill="none" xmlns="http://www.w3.org/2000/svg">
<path d="M86.8693 236.496C101.389 234.246 117.043 228.962 133.127 218.969C143.354 212.615 153.059 206.131 162.075 199.556M86.8693 236.496C40.3734 243.702 5.52167 219.798 5.52167 219.798C5.52167 219.798 1.35797 177.863 26.9245 140.014M86.8693 236.496C86.8693 236.496 76.7903 202.14 64.8218 182.955C52.9836 163.979 26.9245 140.014 26.9245 140.014M26.9245 140.014C35.296 127.621 46.8551 115.665 62.7917 105.764C81.0788 94.4019 99.4407 84.5817 116.966 77.3M182.773 183.217C182.773 183.217 170.934 146.08 157.898 125.126C144.913 104.252 116.966 77.3 116.966 77.3M182.773 183.217C176.398 188.711 169.468 194.164 162.075 199.556M182.773 183.217C186.327 180.153 189.709 177.077 192.902 173.991M116.966 77.3C150.836 63.2269 181.582 58.6356 202.622 70.7217L226.74 109.54C228.187 130.637 215.113 152.53 192.902 173.991M162.075 199.556C162.075 199.556 196.849 229.814 215.674 218.116C233.883 206.8 268.84 168.272 268.84 168.272L265.072 162.208L220.557 189.865C210.323 196.224 192.902 173.991 192.902 173.991M95.2963 87.5609C95.2963 87.5609 83.5733 42.9816 102.4 31.2864C120.611 19.9733 170.638 5.70096 170.638 5.70096L174.406 11.7655L129.891 39.4229C119.657 45.7815 131.872 71.2478 131.872 71.2478M225.089 111.397C225.089 111.397 249.008 113.687 261.342 108.486C276.649 102.033 289.749 76.8277 289.749 76.8277L259.088 79.066L314.188 33.6246L256.835 49.6456L269.055 28.044C269.055 28.044 228.344 35.2632 218.738 42.4945C209.132 49.7257 199.97 70.9666 199.97 70.9666M95.0317 127.76C109.559 118.734 128.646 123.182 137.664 137.696C146.681 152.21 142.215 171.293 127.687 180.319C113.16 189.345 94.0728 184.896 85.0552 170.382C76.0376 155.868 80.5042 136.786 95.0317 127.76Z" stroke="white" stroke-width="10" stroke-linecap="round" stroke-linejoin="round"/>
</svg>
