<svg width="367" height="372" viewBox="0 0 367 372" fill="none" xmlns="http://www.w3.org/2000/svg">
<path d="M143.704 148.003C144.473 148.286 145.14 148.789 145.621 149.451C146.103 150.112 146.378 150.902 146.411 151.72C146.444 152.537 146.233 153.346 145.807 154.044C145.38 154.743 144.755 155.298 144.012 155.642C143.269 155.985 142.442 156.1 141.633 155.973C140.825 155.845 140.072 155.481 139.471 154.926C138.87 154.371 138.447 153.65 138.255 152.854C138.064 152.058 138.113 151.224 138.396 150.456C138.583 149.946 138.869 149.479 139.237 149.079C139.605 148.68 140.049 148.357 140.542 148.13C141.035 147.902 141.568 147.773 142.111 147.752C142.653 147.73 143.195 147.816 143.704 148.003ZM235.985 215.298C236.753 215.58 237.42 216.083 237.902 216.745C238.383 217.406 238.658 218.195 238.691 219.013C238.724 219.83 238.514 220.639 238.088 221.337C237.661 222.036 237.037 222.592 236.294 222.935C235.552 223.278 234.724 223.394 233.916 223.267C233.107 223.14 232.355 222.776 231.753 222.221C231.152 221.667 230.728 220.946 230.537 220.151C230.345 219.356 230.393 218.521 230.675 217.753C231.053 216.723 231.826 215.886 232.821 215.426C233.817 214.965 234.955 214.919 235.985 215.298ZM306.322 140.26C307.09 140.542 307.757 141.046 308.238 141.707C308.72 142.369 308.995 143.158 309.028 143.976C309.061 144.793 308.851 145.602 308.424 146.3C307.998 146.998 307.374 147.554 306.631 147.898C305.888 148.241 305.061 148.357 304.252 148.23C303.444 148.103 302.692 147.739 302.09 147.184C301.489 146.629 301.065 145.909 300.873 145.114C300.681 144.318 300.729 143.484 301.012 142.716C301.39 141.686 302.162 140.849 303.158 140.388C304.154 139.928 305.292 139.882 306.322 140.26ZM173.861 230.972C173.257 231.246 172.783 231.742 172.536 232.356C172 233.684 169.975 232.947 170.423 231.58C170.628 230.951 170.587 230.268 170.309 229.667C170.032 229.067 169.537 228.594 168.926 228.342C167.598 227.806 168.337 225.785 169.702 226.229C170.331 226.435 171.015 226.394 171.615 226.117C172.216 225.839 172.689 225.344 172.94 224.732C173.476 223.404 175.497 224.143 175.053 225.509C174.847 226.137 174.886 226.82 175.163 227.421C175.441 228.021 175.935 228.494 176.547 228.745C177.875 229.281 177.139 231.303 175.77 230.858C175.142 230.652 174.46 230.693 173.861 230.972ZM214.956 79.0636C214.356 79.3406 213.882 79.8354 213.632 80.448C213.096 81.776 211.074 81.0397 211.518 79.6712C211.723 79.0425 211.682 78.3597 211.405 77.7599C211.127 77.16 210.632 76.6874 210.02 76.4371C208.692 75.901 209.43 73.8758 210.797 74.3235C211.426 74.5292 212.109 74.4891 212.71 74.2113C213.31 73.9336 213.784 73.4388 214.034 72.8264C214.569 71.5014 216.591 72.2378 216.148 73.6032C215.943 74.2322 215.983 74.9153 216.261 75.5156C216.539 76.116 217.033 76.5892 217.645 76.8404C218.973 77.3765 218.234 79.3975 216.868 78.9539C216.239 78.7439 215.553 78.7823 214.95 79.0613L214.956 79.0636ZM190.381 213.307C188.948 213.405 187.532 212.951 186.424 212.038C185.315 211.125 184.599 209.822 184.421 208.397C184.243 206.972 184.617 205.533 185.467 204.375C186.317 203.218 187.577 202.429 188.99 202.172L270.247 192.069C271.719 191.899 273.2 192.317 274.366 193.233C275.531 194.149 276.288 195.488 276.47 196.96C276.653 198.431 276.247 199.915 275.34 201.088C274.434 202.261 273.1 203.028 271.631 203.223L190.381 213.307ZM236.533 165.534C235.181 166.134 233.647 166.179 232.263 165.658C230.879 165.137 229.755 164.093 229.134 162.751C228.513 161.408 228.445 159.876 228.945 158.484C229.445 157.092 230.472 155.952 231.804 155.311L332.641 108.671C333.993 108.07 335.527 108.026 336.911 108.547C338.295 109.067 339.419 110.112 340.04 111.454C340.661 112.796 340.729 114.329 340.229 115.721C339.729 117.113 338.702 118.253 337.37 118.894L236.533 165.534ZM261.51 79.8604C260.42 80.8467 258.988 81.3663 257.519 81.3074C256.051 81.2485 254.665 80.6159 253.658 79.5455C252.651 78.4752 252.104 77.0526 252.135 75.5834C252.166 74.1143 252.772 72.716 253.824 71.6891L263.095 62.9782C264.178 61.9588 265.622 61.4115 267.108 61.4566C268.595 61.5017 270.003 62.1356 271.022 63.2187C272.042 64.3019 272.589 65.7457 272.544 67.2324C272.499 68.7192 271.865 70.1271 270.782 71.1465L261.51 79.8604ZM170.728 165.16C169.644 166.179 168.201 166.726 166.714 166.68C165.228 166.634 163.82 166 162.801 164.917C161.782 163.833 161.236 162.389 161.281 160.903C161.327 159.416 161.961 158.009 163.045 156.99L240.266 84.4074C240.802 83.9027 241.433 83.5085 242.121 83.2474C242.81 82.9863 243.543 82.8635 244.28 82.8858C245.016 82.9082 245.74 83.0753 246.412 83.3776C247.083 83.68 247.689 84.1116 248.194 84.648C248.698 85.1843 249.092 85.8148 249.354 86.5035C249.615 87.1922 249.737 87.9255 249.715 88.6617C249.693 89.3978 249.526 90.1224 249.223 90.7939C248.921 91.4655 248.489 92.071 247.953 92.5757L170.728 165.16ZM194.132 185.144C193.459 185.467 192.728 185.654 191.982 185.693C191.236 185.732 190.49 185.622 189.787 185.369C189.084 185.117 188.438 184.727 187.887 184.223C187.336 183.719 186.891 183.11 186.577 182.432C186.264 181.754 186.088 181.021 186.061 180.274C186.033 179.528 186.155 178.784 186.418 178.085C186.681 177.385 187.08 176.746 187.593 176.202C188.105 175.659 188.721 175.223 189.404 174.92L215.079 163.043C216.429 162.447 217.96 162.405 219.341 162.925C220.722 163.446 221.843 164.489 222.463 165.829C223.083 167.168 223.151 168.698 222.655 170.088C222.158 171.477 221.135 172.617 219.806 173.26L194.132 185.144ZM287.02 201.048C285.547 201.204 284.072 200.773 282.916 199.847C281.76 198.922 281.016 197.577 280.846 196.106C280.677 194.635 281.095 193.156 282.01 191.992C282.926 190.827 284.264 190.072 285.733 189.889L325.274 185.25C326.755 185.079 328.244 185.503 329.412 186.429C330.58 187.355 331.333 188.707 331.505 190.188C331.676 191.669 331.252 193.157 330.326 194.326C329.4 195.494 328.048 196.247 326.567 196.418L287.02 201.048ZM120.481 189.1L104.259 153.362C101.204 146.438 91.7186 147.581 90.4082 155.017L83.5809 193.77C83.3871 194.87 82.8463 195.879 82.0378 196.649C81.2293 197.42 80.1954 197.911 79.0876 198.051L42.3584 202.63C40.8525 202.82 40.0388 202.806 38.5497 203.78C33.7123 206.927 34.0395 214.56 39.0556 217.435L72.3945 236.543C73.341 237.077 74.0976 237.893 74.5594 238.877C75.0212 239.861 75.1654 240.965 74.9719 242.034L68.0835 280.423C68.0662 280.526 68.0488 280.629 68.0239 280.744C66.6937 288.261 75.1002 293.194 80.1902 288.204L107.662 261.246C108.466 260.455 109.503 259.944 110.62 259.791C111.767 259.633 112.933 259.862 113.936 260.44C124.753 266.695 135.837 272.856 146.529 279.274C147.846 280.053 148.568 280.541 150.262 280.67C151.162 280.737 152.067 280.626 152.925 280.343C157.318 278.873 159.167 273.665 157.26 269.482L140.915 233.826C140.429 232.837 140.269 231.719 140.458 230.634C140.646 229.548 141.174 228.55 141.964 227.782L169.484 200.928C174.718 195.816 170.62 186.407 163.512 187.293L126.016 192.121C124.89 192.291 123.739 192.087 122.74 191.541C121.741 190.996 120.947 190.138 120.481 189.1ZM128.403 181.271L162.201 176.9C176.132 175.166 186.734 190.108 180.478 203.231C179.622 205.031 178.14 207.208 176.68 208.512L151.88 232.685L166.751 265.122C172.577 277.843 162.892 292.129 149.46 291.085C146.221 290.834 143.774 289.855 141.078 288.183L112.153 271.465L87.4995 295.647C76.4801 306.457 58.2986 298.682 57.4362 283.264C57.3492 281.738 57.4516 280.207 57.741 278.705L59.7845 267.355L63.9836 243.808L33.8592 226.519C21.2604 219.294 21.6361 200.22 34.8453 193.895C37.1411 192.796 38.8892 192.441 41.376 192.221L73.9614 188.165L80.119 153.219C82.8521 137.67 102.142 132.957 111.6 145.371C112.518 146.571 113.283 147.879 113.88 149.266C114.021 149.209 127.193 178.605 128.403 181.271ZM135.302 248.045C134.478 248.046 133.673 247.803 132.986 247.347C132.3 246.891 131.764 246.243 131.445 245.483C131.074 244.627 129.795 241.748 129.637 240.967C128.734 236.56 134.64 234.039 137.184 237.822C137.566 238.387 139.24 242.375 139.375 243.051C139.495 243.655 139.479 244.278 139.33 244.875C139.181 245.473 138.902 246.03 138.513 246.507C138.124 246.984 137.635 247.369 137.079 247.635C136.524 247.901 135.917 248.041 135.302 248.045ZM143.893 272.345L136.173 255.501C134.55 251.954 138.28 248.503 141.475 249.879C142.493 250.269 143.316 251.044 143.766 252.037L151.486 268.882C153.088 272.383 149.47 275.869 146.2 274.509C145.175 274.122 144.346 273.343 143.893 272.345ZM226.718 135.665C227.486 135.947 228.153 136.45 228.635 137.112C229.117 137.773 229.391 138.562 229.425 139.38C229.458 140.197 229.248 141.006 228.821 141.705C228.394 142.403 227.77 142.959 227.028 143.302C226.285 143.645 225.457 143.761 224.649 143.634C223.841 143.507 223.088 143.143 222.487 142.588C221.885 142.034 221.462 141.313 221.27 140.518C221.078 139.723 221.126 138.888 221.408 138.12C221.787 137.09 222.559 136.253 223.555 135.793C224.55 135.332 225.688 135.286 226.718 135.665Z" fill="white"/>
</svg>
