<svg width="305" height="64" viewBox="0 0 305 64" fill="none" xmlns="http://www.w3.org/2000/svg">
<path d="M15.872 50.624C13.9947 50.624 12.1173 50.4747 10.24 50.176C8.36265 49.8347 6.65599 49.3013 5.11999 48.576C3.58399 47.808 2.34665 46.784 1.40799 45.504C0.469319 44.224 -1.46031e-05 42.624 -1.46031e-05 40.704C-1.46031e-05 38.4427 0.575985 36.7787 1.72799 35.712C2.87999 34.6027 4.73599 34.048 7.29599 34.048C8.78932 34.048 10.4107 34.176 12.16 34.432C13.9093 34.688 15.3173 34.816 16.384 34.816C17.3653 34.816 18.0907 34.6667 18.56 34.368C19.072 34.0267 19.328 33.6213 19.328 33.152C19.328 32.6827 19.136 32.32 18.752 32.064C18.368 31.808 17.7707 31.5733 16.96 31.36C16.1493 31.1467 15.0613 30.912 13.696 30.656C10.7093 30.1013 8.29865 29.3547 6.46399 28.416C4.62932 27.4347 3.28532 26.1973 2.43199 24.704C1.62132 23.168 1.21599 21.312 1.21599 19.136C1.21599 16.7467 1.68532 14.6773 2.62399 12.928C3.56265 11.136 4.79999 9.64267 6.33599 8.44801C7.91465 7.21067 9.66399 6.22934 11.584 5.50401C13.504 4.73601 15.4667 4.18134 17.472 3.84C19.4773 3.49867 21.376 3.328 23.168 3.328C27.1787 3.328 30.3573 4.05334 32.704 5.50401C35.0933 6.91201 36.288 9.024 36.288 11.84C36.288 14.0587 35.584 15.872 34.176 17.28C32.768 18.6453 30.592 19.328 27.648 19.328C26.6667 19.328 25.536 19.2853 24.256 19.2C22.976 19.1147 21.76 19.0293 20.608 18.944C19.456 18.816 18.5387 18.752 17.856 18.752C16.832 18.752 16.064 18.88 15.552 19.136C15.0827 19.3493 14.848 19.6907 14.848 20.16C14.848 20.5013 14.9973 20.8427 15.296 21.184C15.5947 21.4827 16.128 21.7813 16.896 22.08C17.7067 22.3787 18.8373 22.6987 20.288 23.04C23.9147 23.8933 26.7947 24.96 28.928 26.24C31.0613 27.4773 32.576 28.928 33.472 30.592C34.4107 32.256 34.88 34.1547 34.88 36.288C34.88 39.1467 34.0693 41.664 32.448 43.84C30.8693 45.9733 28.6507 47.6373 25.792 48.832C22.9333 50.0267 19.6267 50.624 15.872 50.624ZM45.1785 10.752C46.9278 10.752 48.3358 11.4773 49.4025 12.928C50.5118 14.336 51.3225 16.576 51.8345 19.648L50.4905 20.352C51.2585 17.3653 52.6878 15.0827 54.7785 13.504C56.8692 11.9253 59.3438 11.136 62.2025 11.136C64.9332 11.136 67.3438 11.8187 69.4345 13.184C71.5252 14.5493 73.1678 16.6187 74.3625 19.392C75.5998 22.1227 76.2185 25.5573 76.2185 29.696C76.2185 36.3947 74.9598 41.344 72.4425 44.544C69.9678 47.7013 66.6185 49.28 62.3945 49.28C59.5358 49.28 57.2745 48.64 55.6105 47.36C53.9892 46.08 52.8585 44.5227 52.2185 42.688L52.9865 42.304C53.3278 44.6933 53.6052 47.0613 53.8185 49.408C54.0745 51.712 54.2025 53.7387 54.2025 55.488C54.2025 57.664 53.6478 59.4987 52.5385 60.992C51.4292 62.528 49.6798 63.296 47.2905 63.296C45.0718 63.296 43.3652 62.5707 42.1705 61.12C41.0185 59.712 40.2292 57.7707 39.8025 55.296C39.5465 53.5467 39.2905 51.328 39.0345 48.64C38.7785 45.9093 38.5652 42.9653 38.3945 39.808C38.2665 36.6507 38.2025 33.536 38.2025 30.464C38.2025 27.4347 38.3092 24.5973 38.5225 21.952C38.7785 19.264 39.0772 17.088 39.4185 15.424C39.8025 13.8453 40.4852 12.672 41.4665 11.904C42.4905 11.136 43.7278 10.752 45.1785 10.752ZM57.2105 21.888C55.6318 21.888 54.3518 22.6773 53.3705 24.256C52.4318 25.8347 51.9625 27.8827 51.9625 30.4C51.9625 33.0027 52.4318 34.944 53.3705 36.224C54.3092 37.504 55.5465 38.144 57.0825 38.144C58.9598 38.144 60.2825 37.4187 61.0505 35.968C61.8612 34.5173 62.2665 32.64 62.2665 30.336C62.2665 27.4347 61.7545 25.3013 60.7305 23.936C59.7492 22.5707 58.5758 21.888 57.2105 21.888ZM99.5085 50.944C94.2605 50.944 90.0792 50.24 86.9645 48.832C83.8498 47.424 81.5885 45.3973 80.1805 42.752C78.8152 40.1067 78.1325 36.9493 78.1325 33.28C78.1325 28.6293 79.0925 24.6827 81.0125 21.44C82.9752 18.1547 85.6418 15.6373 89.0125 13.888C92.4258 12.1387 96.2872 11.264 100.596 11.264C105.716 11.264 109.471 12.288 111.86 14.336C114.25 16.3413 115.444 18.9867 115.444 22.272C115.444 24.8747 114.719 27.136 113.268 29.056C111.86 30.976 109.876 32.448 107.316 33.472C104.799 34.496 101.876 35.008 98.5485 35.008C97.0125 35.008 95.5192 34.9013 94.0685 34.688C92.6178 34.4747 91.3165 34.1973 90.1645 33.856L91.7005 30.272C91.5725 31.296 91.5085 32.32 91.5085 33.344C91.5085 35.1787 92.1698 36.48 93.4925 37.248C94.8578 38.016 96.7352 38.4 99.1245 38.4C101.428 38.4 103.391 38.1653 105.012 37.696C106.634 37.184 108.063 36.6933 109.3 36.224C110.538 35.712 111.711 35.456 112.82 35.456C113.588 35.456 114.378 35.648 115.188 36.032C115.999 36.416 116.682 37.0133 117.236 37.824C117.791 38.6347 118.068 39.7227 118.068 41.088C118.068 42.9653 117.364 44.6507 115.956 46.144C114.548 47.6373 112.458 48.8107 109.684 49.664C106.954 50.5173 103.562 50.944 99.5085 50.944ZM95.7965 28.608C97.8445 28.608 99.6152 28.1173 101.108 27.136C102.602 26.112 103.348 24.8747 103.348 23.424C103.348 22.4853 103.007 21.7173 102.324 21.12C101.642 20.5227 100.703 20.224 99.5085 20.224C98.1858 20.224 96.9272 20.48 95.7325 20.992C94.5805 21.504 93.6418 22.1653 92.9165 22.976C92.1912 23.7867 91.8285 24.6827 91.8285 25.664C91.8285 26.6027 92.1698 27.328 92.8525 27.84C93.5778 28.352 94.5592 28.608 95.7965 28.608ZM150.36 51.072C147.885 51.072 146.243 50.5173 145.432 49.408C144.664 48.256 144.301 46.4427 144.344 43.968L145.432 44.288C143.128 48.9387 138.712 51.264 132.184 51.264C129.197 51.264 126.723 50.752 124.76 49.728C122.84 48.6613 121.389 47.2747 120.408 45.568C119.469 43.8613 119 41.9627 119 39.872C119 36.3307 120.301 33.536 122.904 31.488C125.549 29.3973 129.048 28.352 133.4 28.352C136.045 28.352 138.371 28.7573 140.376 29.568C142.381 30.3787 144.067 31.5093 145.432 32.96L143.384 32.832C143.384 29.504 142.765 27.136 141.528 25.728C140.291 24.32 138.477 23.616 136.088 23.616C135.064 23.616 133.955 23.7867 132.76 24.128C131.608 24.4267 130.413 24.7467 129.176 25.088C127.939 25.3867 126.68 25.536 125.4 25.536C123.693 25.536 122.349 25.088 121.368 24.192C120.429 23.2533 119.96 22.0587 119.96 20.608C119.96 18.6453 120.792 16.896 122.456 15.36C124.12 13.824 126.317 12.608 129.048 11.712C131.821 10.816 134.808 10.368 138.008 10.368C142.189 10.368 145.816 11.1573 148.888 12.736C151.96 14.272 154.115 16.6613 155.352 19.904C156.291 22.2507 156.952 24.896 157.336 27.84C157.763 30.784 157.976 33.92 157.976 37.248C157.976 40.8747 157.72 43.6907 157.208 45.696C156.696 47.7013 155.864 49.1093 154.712 49.92C153.603 50.688 152.152 51.072 150.36 51.072ZM137.816 41.728C138.669 41.728 139.523 41.6 140.376 41.344C141.272 41.0453 142.019 40.64 142.616 40.128C143.213 39.5733 143.512 38.912 143.512 38.144C143.512 37.376 143.277 36.7573 142.808 36.288C142.339 35.8187 141.699 35.4773 140.888 35.264C140.12 35.0507 139.288 34.944 138.392 34.944C136.771 34.944 135.469 35.2853 134.488 35.968C133.507 36.6507 133.016 37.504 133.016 38.528C133.016 39.4667 133.443 40.2347 134.296 40.832C135.192 41.4293 136.365 41.728 137.816 41.728ZM167.363 51.072C165.912 51.072 164.718 50.752 163.779 50.112C162.883 49.472 162.243 48.512 161.859 47.232C161.475 45.952 161.155 43.8613 160.899 40.96C160.643 38.016 160.515 34.8373 160.515 31.424C160.515 26.944 160.664 22.6347 160.963 18.496C161.304 14.3573 161.731 10.9653 162.243 8.32C162.798 5.41867 163.736 3.30667 165.059 1.984C166.424 0.661338 168.11 3.8147e-06 170.115 3.8147e-06C172.12 3.8147e-06 173.656 0.768004 174.723 2.304C175.832 3.79734 176.387 6.40001 176.387 10.112C176.387 11.9467 176.302 13.952 176.131 16.128C176.003 18.2613 175.747 20.544 175.363 22.976H175.619C177.88 19.52 179.992 16.8533 181.955 14.976C183.918 13.0987 185.71 11.7973 187.331 11.072C188.995 10.3467 190.467 9.984 191.747 9.984C194.008 9.984 195.694 10.6667 196.803 12.032C197.955 13.3973 198.531 15.0827 198.531 17.088C198.531 19.8187 197.208 22.1867 194.563 24.192C191.96 26.1973 187.736 28.1387 181.891 30.016L182.403 28.992C185.902 30.4427 188.782 31.936 191.043 33.472C193.347 34.9653 195.054 36.544 196.163 38.208C197.315 39.8293 197.891 41.5787 197.891 43.456C197.891 45.5467 197.251 47.232 195.971 48.512C194.691 49.7493 192.92 50.368 190.659 50.368C188.568 50.368 186.584 49.92 184.707 49.024C182.872 48.0853 181.187 46.528 179.651 44.352C178.158 42.1333 176.835 39.1253 175.683 35.328H175.427C175.384 37.1627 175.235 39.0187 174.979 40.896C174.723 42.7307 174.424 44.2667 174.083 45.504C173.656 47.2107 172.888 48.576 171.779 49.6C170.712 50.5813 169.24 51.072 167.363 51.072ZM220.571 50.944C215.323 50.944 211.142 50.24 208.027 48.832C204.912 47.424 202.651 45.3973 201.243 42.752C199.878 40.1067 199.195 36.9493 199.195 33.28C199.195 28.6293 200.155 24.6827 202.075 21.44C204.038 18.1547 206.704 15.6373 210.075 13.888C213.488 12.1387 217.35 11.264 221.659 11.264C226.779 11.264 230.534 12.288 232.923 14.336C235.312 16.3413 236.507 18.9867 236.507 22.272C236.507 24.8747 235.782 27.136 234.331 29.056C232.923 30.976 230.939 32.448 228.379 33.472C225.862 34.496 222.939 35.008 219.611 35.008C218.075 35.008 216.582 34.9013 215.131 34.688C213.68 34.4747 212.379 34.1973 211.227 33.856L212.763 30.272C212.635 31.296 212.571 32.32 212.571 33.344C212.571 35.1787 213.232 36.48 214.555 37.248C215.92 38.016 217.798 38.4 220.187 38.4C222.491 38.4 224.454 38.1653 226.075 37.696C227.696 37.184 229.126 36.6933 230.363 36.224C231.6 35.712 232.774 35.456 233.883 35.456C234.651 35.456 235.44 35.648 236.251 36.032C237.062 36.416 237.744 37.0133 238.299 37.824C238.854 38.6347 239.131 39.7227 239.131 41.088C239.131 42.9653 238.427 44.6507 237.019 46.144C235.611 47.6373 233.52 48.8107 230.747 49.664C228.016 50.5173 224.624 50.944 220.571 50.944ZM216.859 28.608C218.907 28.608 220.678 28.1173 222.171 27.136C223.664 26.112 224.411 24.8747 224.411 23.424C224.411 22.4853 224.07 21.7173 223.387 21.12C222.704 20.5227 221.766 20.224 220.571 20.224C219.248 20.224 217.99 20.48 216.795 20.992C215.643 21.504 214.704 22.1653 213.979 22.976C213.254 23.7867 212.891 24.6827 212.891 25.664C212.891 26.6027 213.232 27.328 213.915 27.84C214.64 28.352 215.622 28.608 216.859 28.608ZM240.702 24C240.702 19.0507 241.321 15.488 242.558 13.312C243.796 11.0933 245.524 9.984 247.742 9.984C249.236 9.984 250.43 10.4533 251.326 11.392C252.222 12.288 252.862 13.4187 253.246 14.784C253.673 16.1067 253.886 17.4507 253.886 18.816L253.566 18.688C254.292 16.384 255.38 14.4 256.83 12.736C258.281 11.072 260.052 10.24 262.142 10.24C264.916 10.24 266.964 11.328 268.286 13.504C269.609 15.68 270.27 18.4107 270.27 21.696C270.27 26.0053 269.588 29.0347 268.222 30.784C266.9 32.4907 265.129 33.344 262.91 33.344C261.204 33.344 259.945 32.8747 259.134 31.936C258.366 30.9547 258.046 29.4827 258.174 27.52C258.26 26.0693 258.196 25.088 257.982 24.576C257.812 24.0213 257.534 23.744 257.15 23.744C256.596 23.744 256.19 24.064 255.934 24.704C255.678 25.3013 255.55 26.1547 255.55 27.264C255.55 28.1173 255.657 29.184 255.87 30.464C256.084 31.744 256.318 33.152 256.574 34.688C256.83 36.1813 257.065 37.6747 257.278 39.168C257.492 40.6613 257.598 42.0267 257.598 43.264C257.598 45.9093 256.958 47.7867 255.678 48.896C254.398 50.0053 252.606 50.56 250.302 50.56C248.126 50.56 246.334 50.0053 244.926 48.896C243.561 47.7867 242.644 45.9733 242.174 43.456C241.918 41.92 241.662 40 241.406 37.696C241.193 35.392 241.022 33.024 240.894 30.592C240.766 28.1173 240.702 25.92 240.702 24ZM290.962 10.368C295.57 10.368 298.877 11.1787 300.882 12.8C302.93 14.3787 303.954 16.4267 303.954 18.944C303.954 20.5227 303.421 21.824 302.354 22.848C301.33 23.872 299.879 24.384 298.002 24.384C296.637 24.384 295.165 24.1707 293.586 23.744C292.05 23.2747 290.279 23.04 288.274 23.04C287.335 23.04 286.61 23.2107 286.098 23.552C285.629 23.8933 285.394 24.3413 285.394 24.896C285.394 25.4507 285.65 25.92 286.162 26.304C286.717 26.6453 287.911 26.9227 289.746 27.136C292.989 27.392 295.719 27.904 297.938 28.672C300.199 29.44 301.906 30.6347 303.058 32.256C304.21 33.8347 304.786 36.032 304.786 38.848C304.786 42.9867 303.229 45.9947 300.114 47.872C297.042 49.7493 292.754 50.688 287.25 50.688C283.453 50.688 280.402 50.3253 278.098 49.6C275.794 48.832 274.13 47.7867 273.106 46.464C272.082 45.0987 271.57 43.5413 271.57 41.792C271.57 40.0853 272.125 38.7627 273.234 37.824C274.386 36.8427 275.73 36.352 277.266 36.352C278.247 36.352 279.293 36.5013 280.402 36.8C281.511 37.056 282.685 37.3333 283.922 37.632C285.159 37.9307 286.418 38.08 287.698 38.08C289.405 38.08 290.258 37.5893 290.258 36.608C290.258 36.2667 290.151 35.968 289.938 35.712C289.767 35.4133 289.362 35.1573 288.722 34.944C288.125 34.688 287.186 34.496 285.906 34.368C283.047 34.0267 280.573 33.5147 278.482 32.832C276.391 32.1493 274.77 31.104 273.618 29.696C272.466 28.2453 271.89 26.2827 271.89 23.808C271.89 19.7973 273.554 16.5547 276.882 14.08C280.21 11.6053 284.903 10.368 290.962 10.368Z" fill="#F3F3EB"/>
</svg>
