<svg width="300" height="243" viewBox="0 0 300 243" fill="none" xmlns="http://www.w3.org/2000/svg">
<path d="M207.107 140.041C206.807 138.661 208.407 137.669 209.509 138.551L226.882 152.448C229.014 154.154 231.986 154.345 234.32 152.926L253.911 141.01C255.159 140.251 256.645 141.542 256.068 142.884L247.381 163.082C246.243 165.728 246.982 168.807 249.196 170.648L265.771 184.428C266.872 185.343 266.188 187.134 264.757 187.081L241.668 186.225C239.027 186.127 236.589 187.638 235.502 190.047L225.999 211.107C225.411 212.412 223.503 212.229 223.173 210.836L218.203 189.862C217.539 187.06 215.109 185.028 212.233 184.871L190.279 183.668C188.821 183.588 188.325 181.683 189.56 180.902L208.946 168.655C211.255 167.197 212.406 164.45 211.827 161.781L207.107 140.041Z" stroke="white" stroke-width="5"/>
<path d="M137.739 43.8279C138.405 42.3013 140.69 42.8345 140.612 44.4979L137.965 100.793C137.803 104.252 140.381 107.232 143.828 107.567L199.91 113.028C201.567 113.189 201.766 115.528 200.16 115.967L145.81 130.854C142.47 131.768 140.434 135.141 141.179 138.522L153.311 193.56C153.67 195.186 151.507 196.098 150.593 194.706L119.653 147.61C117.751 144.715 113.913 143.82 110.927 145.576L62.347 174.128C60.9114 174.972 59.3752 173.197 60.4161 171.897L95.641 127.903C97.8052 125.2 97.4705 121.275 94.88 118.977L52.7201 81.5859C51.4743 80.481 52.6876 78.4721 54.2454 79.0604L106.957 98.9694C110.197 100.193 113.828 98.6615 115.212 95.4868L137.739 43.8279Z" stroke="white" stroke-width="5"/>
</svg>
