<svg width="76" height="1240" viewBox="0 0 76 1240" fill="none" xmlns="http://www.w3.org/2000/svg">
<path d="M43 23.0021C43.0011 20.2407 40.7635 18.0011 38.0021 18C35.2407 17.9989 33.0011 20.2365 33 22.9979L38 23L43 23.0021ZM37.4946 1238.04L66.3829 1188.05L8.64787 1188.03L37.4946 1238.04ZM38 23L33 22.9979L32.5133 1193.04L37.5133 1193.04L42.5133 1193.04L43 23.0021L38 23Z" fill="#93A760"/>
<circle cx="25.1903" cy="25.1903" r="25.1903" transform="matrix(-0.00120823 0.999999 0.999999 0.00120823 13.0609 0)" fill="#93A760"/>
<circle cx="25.1903" cy="25.1903" r="25.1903" transform="matrix(-0.00120823 0.999999 0.999999 0.00120823 13.0609 368)" fill="#93A760"/>
<circle cx="25.1903" cy="25.1903" r="25.1903" transform="matrix(-0.00120823 0.999999 0.999999 0.00120823 13.0609 742)" fill="#93A760"/>
</svg>
