<svg width="123" height="31" viewBox="0 0 123 31" fill="none" xmlns="http://www.w3.org/2000/svg">
<path d="M27.8626 0C30.3592 0 32.1122 0.404656 33.1215 1.21397C34.1308 1.9963 34.6354 3.14283 34.6354 4.65354C34.6354 6.21821 34.0378 7.39171 32.8426 8.17404C31.674 8.9294 29.8546 9.30708 27.3845 9.30708C26.5611 9.30708 25.6315 9.29359 24.5957 9.26661C23.5598 9.21266 22.4708 9.13173 21.3287 9.02382L21.5279 8.70009C21.7935 9.29359 21.9263 9.92755 21.9263 10.602C21.9263 11.2764 21.8201 11.9239 21.6076 12.5443L20.9702 12.2611C21.5545 12.0992 22.2584 11.9643 23.0817 11.8564C23.9316 11.7215 24.8081 11.6136 25.7112 11.5327C26.6142 11.4518 27.4376 11.4113 28.1813 11.4113C30.1999 11.4113 31.6076 11.7215 32.4044 12.342C33.2277 12.9625 33.6394 13.7313 33.6394 14.6485C33.6394 15.6467 33.1746 16.4965 32.245 17.1979C31.342 17.8723 29.7616 18.2095 27.504 18.2095C26.5213 18.2095 25.4589 18.1555 24.3168 18.0476C23.1747 17.9397 22.0193 17.7914 20.8507 17.6025L21.4881 17.1169C21.7271 17.5216 21.8732 18.0072 21.9263 18.5737C22.006 19.1402 21.9927 19.7067 21.8865 20.2732C21.7803 20.8128 21.5811 21.2984 21.2889 21.73V21.3253C21.9795 21.1095 22.763 20.9342 23.6395 20.7993C24.516 20.6374 25.419 20.516 26.3486 20.4351C27.2782 20.3542 28.1415 20.3137 28.9383 20.3137C30.824 20.3137 32.2317 20.6374 33.1613 21.2849C34.091 21.9323 34.5558 22.9844 34.5558 24.4412C34.5558 25.3854 34.3698 26.1677 33.998 26.7882C33.6527 27.4087 33.0418 27.9482 32.1653 28.4068C31.4748 28.7575 30.5983 29.0543 29.5359 29.2971C28.5 29.5399 27.3845 29.7152 26.1893 29.8231C25.0206 29.958 23.8652 30.0254 22.7232 30.0254C20.6249 30.0254 18.8852 29.7692 17.5041 29.2566C16.1495 28.7171 15.1668 27.9482 14.5559 26.9501C13.9981 25.9789 13.5997 24.711 13.3607 23.1463C13.1216 21.5816 13.0021 19.437 13.0021 16.7123C13.0021 14.1225 13.0951 11.9913 13.281 10.3187C13.4669 8.61916 13.7325 7.24333 14.0778 6.19123C14.4231 5.13913 14.8215 4.30284 15.273 3.68237C15.9636 2.73817 16.9463 1.9963 18.2212 1.45676C19.4961 0.91722 20.9702 0.539542 22.6435 0.323725C24.3168 0.107908 26.0565 0 27.8626 0Z" fill="#D1DAAF"/>
<path d="M48.3057 1.49723C51.8116 1.49723 54.388 2.27956 56.0347 3.84423C57.708 5.4089 58.5447 7.47264 58.5447 10.0355C58.5447 11.8699 58.1595 13.4615 57.3893 14.8104C56.6456 16.1592 55.6098 17.2113 54.2817 17.9667C52.9803 18.6951 51.5062 19.0593 49.8595 19.0593C49.1689 19.0593 48.3854 19.0053 47.5089 18.8974C46.6589 18.7625 45.8887 18.5602 45.1981 18.2904L45.9551 17.562C46.1676 18.1016 46.3402 18.7625 46.473 19.5449C46.6324 20.3002 46.7519 21.096 46.8316 21.9323C46.9378 22.7686 46.991 23.5375 46.991 24.2389C46.991 26.1273 46.5394 27.5705 45.6364 28.5687C44.7599 29.5668 43.4319 30.0659 41.6523 30.0659C40.1915 30.0659 39.0494 29.7422 38.2261 29.0947C37.4027 28.4203 36.8316 27.3277 36.5129 25.817C36.1942 24.3063 36.0348 22.2965 36.0348 19.7877C36.0348 16.6583 36.2473 14.0281 36.6723 11.8969C37.0972 9.73871 37.6417 8.03916 38.3057 6.79821C39.1822 5.15262 40.4438 3.85772 42.0906 2.91352C43.7639 1.96932 45.8356 1.49723 48.3057 1.49723ZM48.3455 14.4462C49.7532 14.4462 50.9484 14.0685 51.9312 13.3132C52.9139 12.5308 53.4053 11.4518 53.4053 10.0759C53.4053 9.07777 53.0865 8.228 52.4491 7.52659C51.8382 6.79821 50.7891 6.43402 49.3017 6.43402C48.2393 6.43402 47.3097 6.63635 46.5129 7.04101C45.7426 7.41868 45.145 7.94474 44.72 8.61916C44.3216 9.26661 44.1224 9.99499 44.1224 10.8043C44.1224 11.8294 44.4677 12.6927 45.1583 13.3941C45.8754 14.0955 46.9378 14.4462 48.3455 14.4462Z" fill="#D1DAAF"/>
<path d="M65.7402 28.0831C64.6247 28.0831 63.6552 27.6919 62.8319 26.9096C62.0351 26.1003 61.4109 24.711 60.9594 22.7416C60.7469 21.7705 60.561 20.6644 60.4016 19.4235C60.2422 18.1555 60.1227 16.8876 60.043 15.6197C59.9634 14.3518 59.9235 13.2322 59.9235 12.2611C59.9235 9.07777 60.1227 6.63635 60.5211 4.9368C60.9195 3.23724 61.5171 2.06374 62.3139 1.4163C63.1373 0.768847 64.1599 0.445123 65.3817 0.445123C66.5503 0.445123 67.4932 0.836289 68.2103 1.61862C68.9275 2.40096 69.5383 3.74981 70.043 5.66518C70.2289 6.42054 70.4016 7.31078 70.5609 8.3359C70.7203 9.33405 70.8531 10.3727 70.9593 11.4518C71.0656 12.5039 71.1452 13.529 71.1984 14.5271C71.2515 15.5253 71.278 16.3885 71.278 17.1169C71.278 19.41 71.1187 21.3793 70.8 23.0249C70.5078 24.6435 69.9633 25.898 69.1665 26.7882C68.3697 27.6515 67.2276 28.0831 65.7402 28.0831Z" fill="#D1DAAF"/>
<path d="M88.0493 30.2278C84.6496 30.2278 81.8209 29.6613 79.5633 28.5282C77.3057 27.3682 75.6191 25.7496 74.5036 23.6723C73.4146 21.5951 72.8701 19.1672 72.8701 16.3885C72.8701 13.3132 73.4943 10.629 74.7426 8.3359C75.9909 6.01588 77.7838 4.22191 80.1211 2.95399C82.4849 1.68607 85.3269 1.05211 88.6469 1.05211C91.7545 1.05211 94.1316 1.68607 95.7783 2.95399C97.4516 4.19493 98.2883 5.90797 98.2883 8.09311C98.2883 9.68476 97.85 10.9527 96.9736 11.8969C96.1236 12.8141 94.8753 13.2727 93.2286 13.2727C92.3255 13.2727 91.542 13.1513 90.878 12.9085C90.214 12.6657 89.55 12.4364 88.8859 12.2206C88.2219 11.9778 87.4517 11.8564 86.5752 11.8564C85.8315 11.8564 85.1277 11.9778 84.4637 12.2206C83.8262 12.4364 83.3083 12.8276 82.9099 13.3941C82.538 13.9336 82.3521 14.689 82.3521 15.6602C82.3521 16.9281 82.724 17.8318 83.4677 18.3714C84.2379 18.9109 85.2472 19.1807 86.4955 19.1807C87.133 19.1807 87.8501 19.1402 88.6469 19.0593C89.4437 18.9514 90.2272 18.8569 90.9975 18.776C91.7943 18.6951 92.4716 18.6546 93.0294 18.6546C94.437 18.6546 95.5526 19.0593 96.376 19.8686C97.2259 20.6509 97.6508 21.8379 97.6508 23.4296C97.6508 25.5068 96.8673 27.1659 95.3003 28.4068C93.7598 29.6208 91.3428 30.2278 88.0493 30.2278Z" fill="#D1DAAF"/>
<path d="M7.77871 11.2317C6.99096 11.4915 5.92233 12.3728 5.48649 12.781L5.18878 12.7492C5.51459 12.4637 6.23259 11.8456 6.49812 11.6576C6.76365 11.4697 7.35269 11.171 7.61402 11.0452C7.74847 10.732 8.26263 9.92899 8.39689 9.79367C9.09001 9.09508 9.53156 8.97326 9.87093 8.88867C10.7867 8.66043 11.9049 8.61794 12.39 8.51275C12.6001 8.46717 13.3698 8.22615 13.5949 8.08842C13.745 7.99659 13.9681 7.97291 14.0421 7.98402C13.2853 8.63961 12.0988 9.75392 11.3069 10.3406C10.8205 10.7009 9.77308 10.8288 9.46072 10.9114C9.14835 10.994 8.76341 10.907 7.77871 11.2317Z" fill="#506D2A"/>
<path d="M11.0954 13.4613C10.8583 13.1927 9.4345 12.6855 8.75226 12.4654L10.1402 12.3793C9.9957 12.5647 10.1373 12.696 10.2262 12.7385L10.9436 13.0275C10.9436 13.0275 11.118 13.1378 11.1888 13.1743C11.2596 13.2108 11.5395 13.528 11.5395 13.528L11.8373 13.5597C12.4607 13.6986 13.8476 14.0913 14.4074 14.5508C15.107 15.1251 15.3491 16.6211 15.3447 17.0962C15.3413 17.4763 15.6181 18.6422 15.7569 19.1777C15.7614 19.2409 15.6521 19.2597 15.1792 18.8288C14.5881 18.2902 12.8634 18.6494 11.9442 17.4337C11.2088 16.4611 11.5111 14.8776 11.7542 14.2075L11.0954 13.4613Z" fill="#506D2A"/>
<path d="M6.28118 14.3794C5.59604 13.6034 4.1888 13.144 3.62022 13.0672L5.01302 12.943C4.86316 13.0525 4.93105 13.141 4.98372 13.1716C5.16137 13.1983 6.02768 13.7577 6.43864 14.0341C6.79744 13.9092 7.41719 14.0515 7.80395 14.2714C8.07037 14.4229 8.798 14.6908 9.20694 15.686C9.50884 16.4207 8.75351 18.6344 8.24499 19.6584L7.83506 19.325C6.61072 18.7237 5.934 18.3402 5.54632 17.169C5.31521 16.4708 5.78569 15.3019 6.28118 14.3794Z" fill="#506D2A"/>
<path d="M7.80357 12.6563C9.53415 12.5946 12.1266 12.1855 14.7944 12.4145L13.664 11.9632C9.38132 11.8251 4.03555 12.8685 0.555226 13.4356L0.0671731 13.8801C0.0397535 13.8994 0.0171579 13.9197 0 13.9413L0.0671731 13.8801C0.506816 13.5712 2.18674 13.5433 2.58128 13.374C2.91659 13.2302 6.20252 12.8356 7.80357 12.6563Z" fill="#506D2A"/>
<path d="M108.055 9.16691C108.43 9.91711 109.507 13.5512 109.75 15.1482L106.761 16.9252C106.18 16.3939 104.336 15.0051 103.629 13.9072C103.461 13.6458 103.155 12.2562 102.306 11.5734C101.456 10.8907 101.703 9.32621 102.069 8.99016C102.435 8.65411 103.168 7.85558 103.484 7.54408C103.8 7.23258 104.769 6.47546 105.808 6.97132C106.847 7.46718 107.462 7.98208 108.055 9.16691Z" fill="#EEA7BF"/>
<path d="M121.519 16.7001L112.725 16.0773L110.605 17.1463L114.263 19.1224L115.766 20.2068C117.037 20.9969 119.242 21.9824 120.194 22.2448C120.728 22.3918 121.708 21.7234 121.968 20.9684C122.176 20.3645 122.185 19.6902 122.164 19.4285C122.36 19.385 122.784 19.081 122.916 18.2129C123.048 17.3448 122.039 16.8427 121.519 16.7001Z" fill="#EEA7BF"/>
<path d="M113.376 27.1522C114.142 24.9251 111.68 20.9306 110.732 17.869L109.651 17.7392C109.244 17.7501 108.33 17.9651 107.931 18.7382C107.431 19.7046 107.817 21.4551 107.813 21.7462C107.804 22.3784 107.936 22.7218 107.741 23.288C107.589 23.7298 106.83 25.2094 107.287 26.3037C107.745 27.398 107.888 27.8301 109.623 28.3615C111.359 28.8929 113.302 27.3657 113.376 27.1522Z" fill="#EEA7BF"/>
<path d="M119.126 22.9246C118.289 21.5769 113.715 18.815 111.533 17.6026L110.387 18.5088C110.727 19.9429 112.025 23.1994 112.998 24.8577C113.967 26.5103 114.695 27.1969 115.346 27.8515C115.996 28.506 116.888 27.9754 116.99 27.7998C117.092 27.6243 117.846 27.1296 118.244 27.186C118.641 27.2424 119.146 26.744 119.336 26.5571C119.525 26.3702 120.173 24.6093 119.126 22.9246Z" fill="#EEA7BF"/>
<path d="M114.725 8.56975C114.575 9.97378 111.57 13.8599 110.06 15.216L108.913 13.5804C108.842 12.7363 108.706 10.7431 108.648 10.3518C108.523 9.50268 107.324 7.17078 107.259 6.51222C107.193 5.85367 107.609 5.49307 108.129 4.83049C108.649 4.16792 112.163 4.01736 113.413 4.50369C114.664 4.99002 114.912 6.8147 114.725 8.56975Z" fill="#EEA7BF"/>
<path d="M106.948 14.3229C107.977 14.8237 108.623 16.1602 108.818 16.7658C109.049 16.5796 109.447 16.464 109.194 17.4922C108.876 18.7774 107.244 20.6123 106.351 21.2694C105.457 21.9265 103.46 22.2764 102.604 22.0994C101.747 21.9224 101.442 21.4753 101.152 20.864C100.862 20.2527 101.337 18.3881 101.606 17.8483C101.875 17.3085 104.278 14.6882 104.531 14.439C104.783 14.1898 105.662 13.6969 106.948 14.3229Z" fill="#EEA7BF"/>
<path d="M117.803 9.19682C117.371 10.1617 112.891 14.0185 110.739 15.6686L110.025 15.0764C111.519 12.1898 114.57 6.30381 114.826 5.85232C115.145 5.28795 115.803 5.43675 116.1 5.5423C116.338 5.62674 116.811 6.30312 117.018 6.63075C117.295 6.75707 117.896 7.08629 118.091 7.39267C118.334 7.77564 118.344 7.99076 117.803 9.19682Z" fill="#EEA7BF"/>
<path d="M116.104 11.3469C115.555 12.1683 112.391 14.4621 110.878 15.5063L110.607 17.0198L112.651 17.7454C117.133 18.4893 120.501 17.6377 121.762 17.083C121.924 17.0559 122.601 16.7792 122.908 16.1767C123.215 15.5743 122.679 14.7823 122.372 14.4616C122.693 12.9235 122.251 11.3003 121.752 10.8104C121.098 10.1675 119.091 9.69631 118.742 9.74175C118.393 9.78718 116.791 10.32 116.104 11.3469Z" fill="#EEA7BF"/>
<path d="M111.33 18.9435C109.977 19.2063 108.646 18.177 108.358 16.6445C108.069 15.1119 108.932 13.6564 110.284 13.3935C111.637 13.1307 112.968 14.16 113.257 15.6926C113.624 17.6455 112.683 18.6806 111.33 18.9435Z" fill="#FBBDD2"/>
<path d="M61.0369 19.0689C60.1192 18.8967 58.8426 18.046 58.319 17.6422L57.98 17.7287C58.3702 18.0077 59.2295 18.6095 59.5448 18.7847C59.8602 18.9599 60.5526 19.2105 60.8594 19.3139C61.0322 19.657 61.6691 20.5084 61.8309 20.644C62.6665 21.3439 63.1795 21.4127 63.5732 21.455C64.6356 21.5692 65.9188 21.4331 66.4805 21.4753C66.7239 21.4936 67.6198 21.647 67.8859 21.7703C68.0633 21.8525 68.3202 21.8431 68.4043 21.8178C67.4984 21.1786 66.0728 20.0757 65.1308 19.5227C64.5522 19.1832 63.345 19.2078 62.9823 19.1634C62.6197 19.1189 62.184 19.2842 61.0369 19.0689Z" fill="#738B47"/>
<path d="M64.7018 15.9171C64.4463 16.2699 62.8461 17.098 62.078 17.468L63.6726 17.338C63.4961 17.1457 63.6504 16.969 63.7496 16.9047L64.5539 16.4485C64.5539 16.4485 64.7471 16.2908 64.826 16.2364C64.9048 16.1821 65.2065 15.7656 65.2065 15.7656L65.5455 15.6791C66.2512 15.4135 67.816 14.7251 68.4296 14.0961C69.1965 13.3099 69.3841 11.5245 69.3507 10.9709C69.324 10.528 69.5712 9.12189 69.6981 8.47417C69.6995 8.39965 69.5732 8.39591 69.0574 8.97712C68.4127 9.70363 66.416 9.57091 65.4361 11.1419C64.6521 12.3987 65.0931 14.1958 65.4116 14.9372L64.7018 15.9171Z" fill="#738B47"/>
<path d="M59.1334 15.6454C58.3953 16.6645 56.8111 17.4342 56.1646 17.6181L57.7671 17.5318C57.5889 17.4289 57.6614 17.3143 57.7199 17.2699C57.9217 17.2093 58.8804 16.4128 59.3344 16.0222C59.7528 16.1082 60.4541 15.8393 60.8838 15.5186C61.1799 15.2976 61.9971 14.8642 62.4059 13.6353C62.7077 12.728 61.7101 10.2709 61.0665 9.16065L60.617 9.61769C59.2508 10.5225 58.4988 11.0823 58.1249 12.513C57.902 13.3659 58.5108 14.6515 59.1334 15.6454Z" fill="#738B47"/>
<path d="M69.0006 16.5242C70.6084 16.1488 72.3617 14.7187 73.0104 13.9322C73.0686 14.5496 73.4471 15.0011 73.6291 15.1497C73.2601 14.874 72.4556 15.2797 72.0994 15.517C70.2968 16.8281 68.6496 17.2813 67.7331 17.2383C62.8367 18.1105 56.6521 17.781 52.6324 17.6973L52.0469 17.2597C52.0143 17.2418 51.9872 17.2218 51.9663 17.1995L52.0469 17.2597C52.5689 17.5471 54.4944 17.3007 54.9564 17.4327C55.349 17.5448 59.1358 17.4595 60.9801 17.4028C62.9657 17.1874 65.9591 17.2343 69.0006 16.5242Z" fill="#738B47"/>
<path d="M77.3315 14.7809C76.0954 16.1604 74.9783 16.1706 73.7486 15.2517C72.5906 14.3864 72.4435 13.2428 73.8493 11.5746C74.7162 10.7169 76.6551 10.3122 77.6313 11.2716C78.2513 12.0336 78.1471 13.6549 77.3315 14.7809Z" fill="url(#paint0_linear_200_171)"/>
<path d="M35.858 29.7684C35.1735 29.7828 34.0921 29.4006 33.6369 29.2077L33.4158 29.3119C33.7503 29.4411 34.4844 29.7176 34.7442 29.789C35.0039 29.8604 35.546 29.929 35.7845 29.9543C35.979 30.156 36.6088 30.6277 36.7518 30.6944C37.4899 31.0387 37.8667 31.0126 38.1537 30.9856C38.9282 30.9129 39.8057 30.6447 40.2113 30.5942C40.3871 30.5724 41.0522 30.5486 41.2662 30.5927C41.4089 30.6221 41.5883 30.5801 41.6424 30.5518C40.8674 30.2573 39.6275 29.7298 38.8452 29.4971C38.3649 29.3542 37.5175 29.5384 37.2519 29.5597C36.9864 29.5809 36.7137 29.7504 35.858 29.7684Z" fill="#5D7834"/>
<path d="M36.7418 27.7215C36.1359 28.3363 35.0745 28.7877 34.6632 28.8922L35.6204 28.8595C35.5329 28.7942 35.5948 28.725 35.6367 28.6985C35.7656 28.6639 36.4637 28.1882 36.7966 27.9547C37.0282 28.0127 37.486 27.8568 37.7928 27.6658C38.0041 27.5342 38.5579 27.279 39.0052 26.5317C39.3355 25.9799 39.1625 24.4628 38.9708 23.7749L38.6294 24.0491C37.6735 24.586 37.1368 24.9194 36.676 25.7908C36.4012 26.3103 36.5429 27.1051 36.7418 27.7215Z" fill="#5D7834"/>
<path d="M40.9443 26.9849C42.0004 26.514 42.9364 25.3287 43.2282 24.7208C43.3998 25.1191 43.7626 25.3635 43.9225 25.4359C43.6037 25.3059 43.1212 25.6849 42.9199 25.8906C41.924 27.0045 40.8565 27.5321 40.2001 27.6314C36.9265 28.8871 32.489 29.5312 29.6324 30.0357L29.1264 29.8292C29.0996 29.822 29.0763 29.8126 29.0567 29.8008L29.1264 29.8292C29.5558 29.9457 30.8636 29.5155 31.2178 29.538C31.5188 29.5571 34.1751 28.9738 35.4656 28.6798C36.8224 28.2616 38.9464 27.8757 40.9443 26.9849Z" fill="#5D7834"/>
<path d="M46.4594 24.6778C45.878 25.7578 45.0913 25.92 44.0285 25.4864C43.0277 25.0782 42.6821 24.346 43.3222 23.0525C43.7531 22.3673 45.0369 21.831 45.9292 22.3265C46.5282 22.7417 46.7974 23.8232 46.4594 24.6778Z" fill="#5D7834"/>
<path d="M80.287 21.2853C79.1447 22.1038 77.6927 22.01 77.0438 21.0759C76.395 20.1417 76.7949 18.7208 77.9372 17.9023C79.0795 17.0838 80.5315 17.1776 81.1804 18.1118C81.8293 19.0459 81.4293 20.4668 80.287 21.2853Z" fill="#E889A9"/>
<path d="M77.7719 20.8533C75.9235 21.9894 74.0594 22.2966 73.6082 21.5393C73.1571 20.7821 73.4019 19.0933 75.2502 17.9572C77.0986 16.821 80.0925 16.7802 80.3016 17.4251C80.2843 18.2819 79.3736 19.3981 77.7719 20.8533Z" fill="url(#paint1_linear_200_171)"/>
<path d="M79.5927 24.2605C77.6603 25.7481 74.8737 25.4253 74.2743 24.4795C73.675 23.5336 73.1924 21.5861 76.4329 20.104C78.2635 19.2667 81.0369 18.9503 81.771 19.662C82.2153 20.812 80.7359 23.3804 79.5927 24.2605Z" fill="url(#paint2_linear_200_171)"/>
<path d="M74.018 23.5415C74.6788 23.302 76.215 23.1334 77.4228 23.7625C78.7491 24.4533 79.1717 25.1815 79.2438 25.368C78.5472 25.7891 76.6926 26.4423 75.4803 25.8639C74.268 25.2854 73.5972 24.7375 73.4133 24.5358C73.0457 24.7421 72.2278 25.1231 71.8965 24.9969C71.5652 24.8707 71.548 24.7652 71.5808 24.7282C71.5222 24.6679 71.4504 24.5004 71.6323 24.3132C71.8142 24.1259 72.5649 23.8936 72.9175 23.8009C72.6081 23.1829 72.0272 21.7526 72.1787 20.9749C72.3681 20.0027 72.4974 18.8751 73.8527 17.9045C74.2219 18.4029 74.7195 19.0511 74.8134 20.3909C74.9074 21.7308 74.3223 23.0496 74.018 23.5415Z" fill="#738B47"/>
<defs>
<linearGradient id="paint0_linear_200_171" x1="43.1324" y1="29.6975" x2="57.0906" y2="-19.4318" gradientUnits="userSpaceOnUse">
<stop stop-color="#506D2A"/>
<stop offset="1" stop-color="#93A760"/>
</linearGradient>
<linearGradient id="paint1_linear_200_171" x1="58.0799" y1="10.3671" x2="58.0468" y2="29.1033" gradientUnits="userSpaceOnUse">
<stop stop-color="#F1B6CA"/>
<stop offset="1" stop-color="#E889A9"/>
</linearGradient>
<linearGradient id="paint2_linear_200_171" x1="104.775" y1="4.40771" x2="104.849" y2="41.6848" gradientUnits="userSpaceOnUse">
<stop stop-color="#F1B6CA"/>
<stop offset="1" stop-color="#E889A9"/>
</linearGradient>
</defs>
</svg>
