<svg width="309" height="396" viewBox="0 0 309 396" fill="none" xmlns="http://www.w3.org/2000/svg">
<path d="M128.066 295.449C123.224 295.966 101.423 294.383 92.3563 292.422L89.5348 272.32C93.6681 270.218 105.193 262.948 112.629 261.33C114.4 260.945 122.501 262.13 128.04 258.869C133.578 255.608 141.38 260.193 142.358 262.898C143.337 265.604 145.964 271.286 146.922 273.665C147.881 276.044 149.761 282.938 144.798 287.626C139.834 292.314 135.714 294.634 128.066 295.449Z" fill="#F1B6CA"/>
<path d="M57.8283 353.928L80.7626 306.861L79.7824 293L61.0781 309.03L51.9364 315.058C44.8838 320.417 34.7064 330.505 31.1819 335.2C29.2082 337.829 30.5895 344.601 34.0403 347.588C36.8008 349.977 40.379 351.422 41.8231 351.846C41.6189 353.012 42.2954 355.973 46.6354 358.49C50.9754 361.008 55.9057 356.498 57.8283 353.928Z" fill="#F1B6CA"/>
<path d="M20.1897 287.578C30.3693 296.39 57.1836 291.098 75.6421 292.205L78.7461 286.527C79.5954 284.267 80.485 278.8 77.2488 275.007C73.2035 270.266 62.998 268.774 61.4535 268.15C58.0989 266.796 55.9713 266.813 53.3833 264.573C51.3638 262.824 45.1587 255.594 38.2968 255.851C31.4349 256.107 28.8089 256.003 22.1019 264.449C15.395 272.894 19.2137 286.733 20.1897 287.578Z" fill="#F1B6CA"/>
<path d="M29.9342 327.924C38.9963 326.102 63.9396 306.654 75.2785 297.157L72.996 288.985C64.5812 287.898 44.3021 288.313 33.2812 290.236C22.2982 292.153 17.0089 294.739 12.0641 296.965C7.11936 299.191 7.96389 305.189 8.67327 306.113C9.38265 307.036 10.342 312.204 9.15405 314.274C7.96607 316.344 9.50019 320.15 10.0755 321.578L10.0755 321.578C10.6508 323.005 18.6067 330.201 29.9342 327.924Z" fill="#F1B6CA"/>
<path d="M116.381 333.355C109.219 329.634 95.176 305.086 91.3021 293.988L102.591 291.058C107.255 292.41 118.201 295.773 120.418 296.265C125.229 297.331 140.352 295.551 144.013 296.551C147.674 297.552 148.672 300.584 151.049 304.81C153.427 309.037 146.396 328.665 141.011 334.538C135.626 340.41 125.333 338.006 116.381 333.355Z" fill="#F1B6CA"/>
<path d="M103.011 278.718C98.0432 283.341 89.4666 284.137 85.7992 283.957C86.2787 285.612 86.007 288.041 81.0841 284.523C74.9305 280.126 68.7752 267.363 67.2598 261.094C65.7443 254.825 68.3297 243.122 71.1848 238.777C74.0399 234.433 77.1065 233.679 81.0166 233.346C84.9267 233.013 93.8217 239.473 96.1031 242.068C98.3846 244.662 107.014 263.285 107.781 265.188C108.548 267.091 109.22 272.939 103.011 278.718Z" fill="#F1B6CA"/>
<path d="M106.168 348.989C101.981 344.621 91.3823 312.026 87.3734 296.783L92.1264 294.081C104.205 308.254 128.821 337.184 130.662 339.52C132.963 342.441 130.701 345.751 129.475 347.168C128.494 348.301 123.827 349.508 121.617 349.97C120.326 351.228 117.228 353.854 115.158 354.293C112.571 354.842 111.401 354.449 106.168 348.989Z" fill="#F1B6CA"/>
<path d="M98.4789 335.208C95.3192 330.49 90.1295 308.36 87.9296 297.884L80.4534 293.271L72.0216 303.012C58.0568 326.119 55.0924 346.396 55.2409 354.476C55.0239 355.424 54.9928 359.714 57.5234 362.648C60.0541 365.582 65.4782 364.267 67.874 363.243C75.3694 368.182 85.0211 369.101 88.7481 367.37C93.6397 365.098 100.63 355.039 101.166 353.024C101.702 351.01 102.429 341.105 98.4789 335.208Z" fill="#F1B6CA"/>
<path d="M69.4795 288.79C70.5924 283.285 77.5391 279.902 84.9956 281.234C92.452 282.567 97.5945 288.109 96.4816 293.614C95.3688 299.119 88.422 302.501 80.9656 301.169C71.464 299.472 68.3667 294.295 69.4795 288.79Z" fill="#F1B6CA"/>
<path d="M56.4957 211.662C54.9872 209.624 49.9466 199.327 48.4346 194.67L56.6988 187.627C58.7309 188.889 65.0285 192.006 67.7148 194.9C68.3545 195.589 69.96 199.586 72.882 201.151C75.804 202.716 75.8071 207.555 74.8526 208.773C73.8981 209.991 72.0446 212.808 71.2314 213.924C70.4181 215.04 67.8244 217.867 64.4144 216.971C61.0045 216.076 58.8782 214.881 56.4957 211.662Z" fill="#F1B6CA"/>
<path d="M11.7648 196.733L38.9061 193.579L44.8591 189.159L32.7425 185.314L27.6299 182.917C23.3687 181.27 16.1633 179.571 13.13 179.327C11.4314 179.19 8.76065 181.758 8.33215 184.173C7.98934 186.105 8.28548 188.136 8.4764 188.909C7.90013 189.152 6.75168 190.307 6.7681 192.989C6.78452 195.671 10.1061 196.603 11.7648 196.733Z" fill="#F1B6CA"/>
<path d="M31.5722 160.695C30.3081 167.821 39.7516 178.409 44.1237 187.061L47.4869 186.833C48.7236 186.568 51.4084 185.4 52.2545 182.85C53.3122 179.663 51.2893 174.627 51.1615 173.75C50.8839 171.847 50.315 170.891 50.6364 169.08C50.8872 167.666 52.4908 162.789 50.5661 159.765C48.6414 156.74 47.9956 155.525 42.4419 154.92C36.8881 154.316 31.6934 160.012 31.5722 160.695Z" fill="#F1B6CA"/>
<path d="M16.0615 176.675C19.268 180.244 34.5622 185.924 41.8084 188.318L44.8686 184.942C43.1368 180.831 37.6023 171.793 33.8339 167.369C30.0783 162.96 27.5242 161.315 25.2226 159.721C22.921 158.127 20.4558 160.23 20.2289 160.815C20.002 161.401 17.9391 163.317 16.6982 163.375C15.4574 163.432 14.1562 165.218 13.6682 165.887L13.6682 165.887C13.1802 166.557 12.0534 172.214 16.0615 176.675Z" fill="#F1B6CA"/>
<path d="M36.4266 217.266C36.2052 212.964 43.5026 199.578 47.4547 194.643L51.7452 198.9C52.3693 201.394 53.7487 207.301 54.1132 208.443C54.9042 210.922 59.6905 217.239 60.2077 219.179C60.725 221.119 59.6293 222.44 58.3621 224.726C57.095 227.013 46.4444 229.472 42.3926 228.726C38.3408 227.98 36.7034 222.643 36.4266 217.266Z" fill="#F1B6CA"/>
<path d="M57.3858 195.547C54.004 194.631 51.3852 190.987 50.4985 189.28C49.8836 189.971 48.7233 190.546 49.0014 187.313C49.349 183.273 53.4455 176.83 55.8552 174.347C58.2648 171.863 64.1915 169.672 66.8914 169.714C69.5913 169.756 70.7378 170.924 71.9183 172.594C73.0988 174.264 72.5496 180.135 71.9886 181.909C71.4276 183.684 65.3579 192.925 64.7073 193.818C64.0567 194.71 61.6129 196.692 57.3858 195.547Z" fill="#F1B6CA"/>
<path d="M26.7268 217.142C27.5799 213.998 39.3922 199.857 45.166 193.672L47.6302 195.042C44.4643 204.564 37.992 223.982 37.4302 225.484C36.728 227.361 34.6485 227.29 33.6901 227.143C32.9233 227.025 31.1518 225.264 30.3619 224.399C29.4577 224.177 27.4636 223.532 26.721 222.723C25.7928 221.713 25.6603 221.072 26.7268 217.142Z" fill="#F1B6CA"/>
<path d="M30.8748 209.715C32.1558 206.934 40.7048 198.239 44.8192 194.239L44.9145 189.539L38.3254 188.528C24.2874 188.855 14.4185 193.336 10.8365 195.722C10.3544 195.897 8.42373 197.114 7.77626 199.098C7.12879 201.083 9.14871 203.155 10.2396 203.943C10.003 208.744 12.1366 213.366 13.8953 214.552C16.2034 216.109 22.5551 216.377 23.5992 216.042C24.6433 215.706 29.2737 213.191 30.8748 209.715Z" fill="#F1B6CA"/>
<path d="M44.0287 183.298C46.7892 182.221 50.1372 184.386 51.5068 188.135C52.8764 191.884 51.7489 195.797 48.9884 196.875C46.228 197.952 42.8799 195.786 41.5103 192.037C39.765 187.26 41.2683 184.376 44.0287 183.298Z" fill="#F1B6CA"/>
<path d="M234.938 106.051C239.424 107.301 245.327 112.062 247.717 114.287L249.457 114.006C247.664 112.457 243.707 109.108 242.229 108.104C240.752 107.101 237.434 105.561 235.959 104.916C235.286 103.145 232.578 98.6569 231.845 97.9162C228.06 94.0919 225.537 93.5291 223.595 93.1489C218.354 92.1232 211.873 92.2399 209.092 91.7876C207.887 91.5917 203.5 90.4445 202.24 89.7192C201.399 89.2357 200.112 89.1708 199.678 89.2592C203.847 92.8137 210.354 98.8875 214.751 102.031C217.452 103.961 223.492 104.363 225.278 104.74C227.064 105.117 229.33 104.489 234.938 106.051Z" fill="#F1B6CA"/>
<path d="M214.899 120.051C216.37 118.417 224.816 115.015 228.855 113.518L220.823 113.469C221.598 114.497 220.73 115.304 220.199 115.579L215.932 117.487C215.932 117.487 214.88 118.183 214.456 118.418C214.033 118.653 212.296 120.582 212.296 120.582L210.556 120.862C206.886 121.87 198.694 124.596 195.283 127.441C191.02 130.998 189.096 139.747 188.957 142.5C188.846 144.702 186.834 151.55 185.843 154.699C185.795 155.067 186.423 155.14 189.319 152.489C192.939 149.175 202.834 150.697 208.594 143.352C213.203 137.476 211.994 128.396 210.814 124.59L214.899 120.051Z" fill="#F1B6CA"/>
<path d="M242.547 123.81C246.796 119.089 255.13 115.97 258.459 115.34L250.411 115.072C251.244 115.659 250.819 116.194 250.502 116.388C249.461 116.6 244.235 120.124 241.752 121.859C239.711 121.252 236.062 122.278 233.739 123.678C232.139 124.643 227.819 126.432 225.1 132.333C223.092 136.69 226.713 149.276 229.313 155.047L231.809 152.981C239.13 149.098 243.193 146.656 245.851 139.741C247.435 135.619 245.106 128.996 242.547 123.81Z" fill="#F1B6CA"/>
<path d="M193.774 115.184C185.541 116.344 175.997 122.657 172.324 126.266C172.375 123.186 170.735 120.789 169.909 119.975C171.598 121.499 175.839 119.841 177.748 118.822C187.472 113.118 195.945 111.591 200.497 112.201C225.423 110.011 256.115 114.323 276.136 116.481L278.817 118.899C278.97 119.002 279.094 119.112 279.186 119.232L278.817 118.899C276.37 117.251 266.621 117.635 264.388 116.782C262.49 116.057 243.539 114.836 234.3 114.317C224.269 114.521 209.351 112.991 193.774 115.184Z" fill="#F1B6CA"/>
<path d="M151.221 120.194C158.155 113.906 163.737 114.34 169.369 119.419C174.671 124.201 174.773 129.921 166.833 137.563C162.031 141.429 152.128 142.59 147.785 137.421C145.111 133.383 146.527 125.409 151.221 120.194Z" fill="#F1B6CA"/>
<path d="M234.938 106.051C239.424 107.301 245.326 112.062 247.717 114.287L249.457 114.006C247.664 112.457 243.707 109.107 242.229 108.104C240.752 107.101 237.433 105.561 235.959 104.916C235.286 103.145 232.577 98.6568 231.844 97.9161C228.06 94.0917 225.537 93.5289 223.595 93.1488C218.354 92.1231 211.873 92.2398 209.092 91.7875C207.887 91.5916 203.5 90.4444 202.239 89.7191C201.399 89.2355 200.112 89.1707 199.678 89.2591C203.847 92.8135 210.354 98.8874 214.751 102.031C217.452 103.961 223.492 104.363 225.278 104.74C227.064 105.117 229.33 104.489 234.938 106.051Z" fill="#F1B6CA"/>
<path d="M214.899 120.051C216.37 118.417 224.816 115.015 228.855 113.518L220.823 113.469C221.598 114.497 220.73 115.304 220.199 115.579L215.931 117.487C215.931 117.487 214.88 118.183 214.456 118.418C214.032 118.652 212.296 120.582 212.296 120.582L210.556 120.862C206.886 121.87 198.694 124.596 195.283 127.441C191.02 130.997 189.096 139.747 188.957 142.5C188.846 144.702 186.834 151.55 185.842 154.699C185.795 155.067 186.423 155.14 189.319 152.489C192.939 149.175 202.834 150.697 208.594 143.352C213.203 137.476 211.994 128.396 210.814 124.59L214.899 120.051Z" fill="#F1B6CA"/>
<path d="M242.547 123.81C246.796 119.089 255.129 115.969 258.459 115.34L250.411 115.072C251.244 115.659 250.819 116.194 250.502 116.388C249.461 116.6 244.235 120.124 241.752 121.859C239.711 121.252 236.062 122.278 233.739 123.678C232.139 124.643 227.819 126.432 225.099 132.333C223.091 136.69 226.713 149.276 229.313 155.047L231.809 152.981C239.129 149.098 243.193 146.655 245.851 139.741C247.435 135.619 245.106 128.996 242.547 123.81Z" fill="#F1B6CA"/>
<path d="M193.774 115.184C185.541 116.343 175.997 122.657 172.324 126.265C172.375 123.186 170.735 120.789 169.908 119.975C171.598 121.499 175.839 119.841 177.748 118.822C187.472 113.118 195.945 111.591 200.497 112.201C225.423 110.011 256.115 114.323 276.136 116.481L278.817 118.899C278.97 119.002 279.094 119.112 279.186 119.232L278.817 118.899C276.37 117.251 266.621 117.635 264.388 116.781C262.49 116.057 243.539 114.836 234.3 114.317C224.269 114.521 209.351 112.991 193.774 115.184Z" fill="#F1B6CA"/>
<path d="M151.221 120.194C158.155 113.906 163.737 114.34 169.368 119.419C174.671 124.201 174.773 129.921 166.833 137.563C162.031 141.429 152.128 142.59 147.785 137.421C145.111 133.383 146.527 125.409 151.221 120.194Z" fill="#F1B6CA"/>
<path d="M158.194 190.633C158.028 188.735 156.324 186.848 155.493 186.141L155.794 185.256C156.36 185.809 157.577 187.044 157.914 187.553C158.25 188.062 158.666 189.345 158.832 189.923C159.612 189.898 161.49 190.315 161.773 190.52C163.233 191.579 163.26 192.674 163.255 193.526C163.242 195.828 162.566 198.944 162.515 200.184C162.494 200.72 162.62 202.591 162.845 203.051C162.995 203.357 162.903 203.959 162.819 204.184C161.525 202.888 159.254 200.968 158.177 199.483C157.516 198.572 157.903 195.767 157.894 194.988C157.885 194.209 158.402 193.004 158.194 190.633Z" fill="#F1B6CA"/>
<path d="M149.607 202.934C150.526 201.912 152.955 197.216 154.055 194.995L153.309 198.82C152.894 198.651 152.426 199.223 152.245 199.53L150.927 201.94C150.927 201.94 150.495 202.578 150.343 202.826C150.19 203.074 149.105 204.28 149.105 204.28L148.805 205.166C147.974 207.114 145.891 211.558 144.21 213.742C142.108 216.472 137.755 219.099 136.431 219.704C135.371 220.187 131.916 222.485 130.322 223.574C130.142 223.669 130.167 223.383 131.707 221.483C133.632 219.107 133.853 214.681 137.904 210.496C141.144 207.148 145.354 205.951 147.054 205.771L149.607 202.934Z" fill="#F1B6CA"/>
<path d="M150.462 190.47C153.118 187.519 155.401 182.931 156.02 181.219L155.377 185.009C155.177 184.726 154.882 185.033 154.759 185.222C154.558 185.761 152.38 188.944 151.315 190.468C151.409 191.324 150.571 193.266 149.682 194.649C149.07 195.601 147.804 198.013 144.732 200.464C142.465 202.274 136.816 203.004 134.315 202.891L135.538 201.295C138.088 197.042 139.641 194.625 143.189 192.005C145.304 190.444 148.237 190.261 150.462 190.47Z" fill="#F1B6CA"/>
<path d="M149.904 212.067C148.564 216.224 144.644 222.013 142.573 224.472C144.045 223.846 145.03 224.161 145.338 224.396C144.774 223.887 145.97 221.539 146.638 220.428C150.285 214.672 151.824 210.329 151.969 208.275C155.397 195.948 156.28 182.139 157.168 173.004L156.272 172.196C156.238 172.143 156.197 172.106 156.149 172.085L156.272 172.196C156.823 173.042 155.708 177.771 155.9 178.67C156.064 179.435 154.832 188.243 154.195 192.552C153.138 197.38 152.44 204.203 149.904 212.067Z" fill="#F1B6CA"/>
<path d="M143.446 233.359C147.105 228.821 147.432 226.241 145.552 224.545C143.781 222.948 141.066 224.017 136.666 229.3C134.364 232.348 132.864 237.302 134.91 238.366C136.578 238.853 140.512 236.619 143.446 233.359Z" fill="#F1B6CA"/>
<ellipse cx="10.9385" cy="13.9036" rx="10.9385" ry="13.9036" transform="matrix(-0.892948 -0.450159 0.460928 -0.887438 103.301 205.395)" fill="#F1B6CA"/>
<path d="M103.372 178.728C109.554 168.589 117.818 162.313 121.829 164.712C125.841 167.11 128.742 175.699 122.56 185.838C116.377 195.978 102.01 203.925 99.4402 201.429C97.4519 197.349 99.1521 189.732 103.372 178.728Z" fill="#F1B6CA"/>
<path d="M86.3338 167.396C92.0725 155.383 106.316 149.685 111.5 152.588C116.683 155.491 123.725 163.414 111.653 178.789C104.833 187.475 92.1986 196.15 86.9309 194.699C82.0028 190.433 82.9389 174.502 86.3338 167.396Z" fill="#F1B6CA"/>
<path d="M115.007 156.342C112.394 159.182 105.379 163.955 98.0224 164.121C89.9434 164.302 86.1402 161.967 85.3411 161.275C87.6881 157.487 95.0691 149.606 102.325 149.191C109.581 148.775 114.148 149.619 115.524 150.092C116.801 148.168 119.832 144.255 121.737 143.991C123.643 143.727 123.982 144.18 123.913 144.439C124.342 144.571 125.094 145.174 124.668 146.527C124.242 147.881 121.177 150.919 119.697 152.27C122.686 154.379 128.952 159.611 130.101 163.667C131.538 168.737 133.64 174.383 129.439 182.466C126.45 181.075 122.478 179.311 118.784 173.243C115.089 167.175 114.727 159.447 115.007 156.342Z" fill="#F1B6CA"/>
</svg>
